<svg xmlns="http://www.w3.org/2000/svg" xmlns:xlink="http://www.w3.org/1999/xlink" width="500" zoomAndPan="magnify" viewBox="0 0 375 374.999991" height="500" preserveAspectRatio="xMidYMid meet" version="1.0"><defs><g/><clipPath id="6a366dfc3a"><path d="M 164 95.828125 L 211 95.828125 L 211 154 L 164 154 Z M 164 95.828125 " clip-rule="nonzero"/></clipPath><clipPath id="0af3bf7bfd"><path d="M 103 249 L 274 249 L 274 279.042969 L 103 279.042969 Z M 103 249 " clip-rule="nonzero"/></clipPath></defs><rect x="-37.5" width="450" fill="#ffffff" y="-37.499999" height="449.999989" fill-opacity="1"/><rect x="-37.5" width="450" fill="#000000" y="-37.499999" height="449.999989" fill-opacity="1"/><path fill="#ffffff" d="M 188.871094 154.84375 C 188.746094 154.84375 188.683594 154.84375 188.558594 154.84375 C 188.183594 154.84375 187.8125 154.84375 187.5 154.84375 C 187.1875 154.84375 186.8125 154.84375 186.4375 154.84375 C 186.3125 154.84375 186.25 154.84375 186.125 154.84375 C 186.125 158.902344 186.125 162.835938 186.125 166.957031 C 186.25 166.957031 186.3125 166.957031 186.4375 166.957031 C 186.8125 166.957031 187.1875 166.957031 187.5 166.957031 C 187.875 166.957031 188.183594 166.957031 188.558594 166.957031 C 188.683594 166.957031 188.746094 166.957031 188.871094 166.957031 C 188.871094 162.835938 188.871094 158.902344 188.871094 154.84375 Z M 188.871094 154.84375 " fill-opacity="1" fill-rule="nonzero"/><path fill="#ffffff" d="M 185.0625 154.84375 C 185 154.84375 184.9375 154.78125 184.9375 154.78125 C 184.6875 154.71875 184.4375 154.71875 184.1875 154.71875 C 182.691406 154.65625 182.628906 154.78125 182.628906 156.65625 C 182.628906 159.527344 182.628906 162.460938 182.628906 165.335938 C 182.628906 165.835938 182.691406 166.394531 182.753906 166.894531 C 183.6875 166.894531 184.4375 166.894531 185.3125 166.894531 C 185.4375 166.894531 185.5625 166.894531 185.6875 166.894531 C 185.6875 162.960938 185.6875 159.214844 185.625 155.46875 C 185.625 155.34375 185.5 155.15625 185.3125 154.96875 C 185.3125 154.90625 185.3125 154.90625 185.3125 154.84375 C 185.25 154.90625 185.125 154.90625 185.0625 154.84375 Z M 185.0625 154.84375 " fill-opacity="1" fill-rule="nonzero"/><path fill="#ffffff" d="M 180.628906 167.019531 C 180.941406 167.019531 181.191406 167.019531 181.378906 166.894531 C 181.628906 166.894531 181.941406 166.894531 182.191406 166.894531 C 182.191406 163.460938 182.191406 160.089844 182.191406 156.71875 C 182.191406 154.96875 182.191406 154.65625 180.941406 154.78125 C 180.816406 154.78125 180.691406 154.78125 180.566406 154.78125 C 179.753906 154.78125 179.316406 154.96875 179.316406 155.90625 C 179.316406 159.277344 179.316406 162.710938 179.316406 166.085938 C 179.316406 167.019531 179.878906 167.019531 180.628906 167.019531 Z M 180.628906 167.019531 " fill-opacity="1" fill-rule="nonzero"/><path fill="#ffffff" d="M 178.320312 166.957031 C 178.507812 166.957031 178.695312 166.957031 178.878906 166.957031 C 178.878906 162.898438 178.878906 158.902344 178.878906 154.96875 C 178.570312 154.84375 178.320312 154.84375 178.070312 154.84375 C 177.820312 154.84375 177.632812 155.03125 177.570312 155.28125 C 177.445312 155.40625 177.382812 155.46875 177.382812 155.59375 C 177.320312 159.339844 177.320312 163.148438 177.320312 167.019531 C 177.820312 167.082031 178.132812 167.082031 178.320312 166.957031 Z M 178.320312 166.957031 " fill-opacity="1" fill-rule="nonzero"/><path fill="#ffffff" d="M 192.371094 156.65625 C 192.371094 154.78125 192.371094 154.65625 190.808594 154.71875 C 190.558594 154.71875 190.308594 154.71875 190.058594 154.78125 C 189.996094 154.78125 189.996094 154.78125 189.933594 154.84375 C 189.871094 154.84375 189.746094 154.90625 189.683594 154.90625 C 189.683594 154.96875 189.683594 154.96875 189.683594 155.03125 C 189.496094 155.15625 189.371094 155.34375 189.371094 155.53125 C 189.308594 159.277344 189.308594 163.085938 189.308594 166.957031 C 189.433594 166.957031 189.558594 166.957031 189.683594 166.957031 C 190.558594 166.957031 191.371094 166.957031 192.246094 166.957031 C 192.308594 166.394531 192.371094 165.898438 192.371094 165.398438 C 192.371094 162.460938 192.371094 159.589844 192.371094 156.65625 Z M 192.371094 156.65625 " fill-opacity="1" fill-rule="nonzero"/><path fill="#ffffff" d="M 194.367188 154.71875 C 194.242188 154.71875 194.117188 154.71875 193.992188 154.71875 C 192.746094 154.59375 192.746094 154.90625 192.746094 156.65625 C 192.746094 160.027344 192.746094 163.398438 192.746094 166.832031 C 193.054688 166.832031 193.304688 166.832031 193.554688 166.832031 C 193.742188 166.894531 193.992188 166.957031 194.304688 166.957031 C 195.054688 166.957031 195.617188 166.894531 195.617188 165.960938 C 195.617188 162.585938 195.617188 159.152344 195.617188 155.78125 C 195.617188 154.90625 195.179688 154.71875 194.367188 154.71875 Z M 194.367188 154.71875 " fill-opacity="1" fill-rule="nonzero"/><path fill="#ffffff" d="M 197.613281 166.957031 C 197.613281 163.085938 197.613281 159.339844 197.554688 155.53125 C 197.554688 155.40625 197.492188 155.34375 197.367188 155.21875 C 197.304688 154.90625 197.117188 154.78125 196.867188 154.78125 C 196.679688 154.78125 196.367188 154.78125 196.054688 154.90625 C 196.054688 158.902344 196.054688 162.835938 196.054688 166.894531 C 196.242188 166.894531 196.429688 166.894531 196.617188 166.894531 C 196.867188 167.082031 197.179688 167.082031 197.613281 166.957031 Z M 197.613281 166.957031 " fill-opacity="1" fill-rule="nonzero"/><path fill="#ffffff" d="M 179.316406 110.628906 C 180.003906 110.628906 180.628906 111.003906 181.003906 111.566406 C 180.691406 110.816406 179.941406 110.253906 179.066406 110.253906 C 177.882812 110.253906 176.945312 111.191406 176.945312 112.378906 C 176.945312 113.253906 177.507812 114.003906 178.257812 114.316406 C 177.695312 113.941406 177.320312 113.316406 177.320312 112.628906 C 177.320312 111.503906 178.257812 110.628906 179.316406 110.628906 Z M 179.316406 110.628906 " fill-opacity="1" fill-rule="nonzero"/><path fill="#ffffff" d="M 181.378906 126.992188 L 181.441406 131.113281 C 181.441406 131.238281 181.441406 131.363281 181.441406 131.488281 C 181.503906 132.613281 181.566406 133.734375 181.566406 134.859375 C 181.566406 135.234375 181.566406 135.546875 181.566406 135.921875 C 181.878906 136.421875 182.066406 136.984375 182.066406 137.546875 C 182.066406 138.105469 181.878906 138.605469 181.628906 139.105469 C 181.691406 143.289062 181.753906 147.472656 181.816406 151.660156 C 181.816406 152.40625 181.878906 152.90625 182.003906 153.21875 C 182.191406 153.65625 182.503906 153.78125 183.316406 153.65625 C 183.625 153.65625 184 153.65625 184.5 153.59375 L 182.066406 125.492188 C 181.941406 126.054688 181.691406 126.554688 181.378906 126.992188 Z M 181.378906 126.992188 " fill-opacity="1" fill-rule="nonzero"/><path fill="#ffffff" d="M 179.316406 123.183594 C 180.003906 123.183594 180.628906 123.558594 181.003906 124.117188 C 180.691406 123.371094 179.941406 122.808594 179.066406 122.808594 C 177.882812 122.808594 176.945312 123.746094 176.945312 124.929688 C 176.945312 125.617188 177.257812 126.179688 177.757812 126.554688 C 177.695312 126.429688 177.632812 126.304688 177.632812 126.179688 C 177.445312 125.867188 177.382812 125.554688 177.382812 125.179688 C 177.320312 124.054688 178.257812 123.183594 179.316406 123.183594 Z M 179.316406 123.183594 " fill-opacity="1" fill-rule="nonzero"/><path fill="#ffffff" d="M 179.316406 135.734375 C 180.003906 135.734375 180.628906 136.046875 180.941406 136.609375 C 180.628906 135.859375 179.878906 135.359375 179.003906 135.359375 C 177.820312 135.359375 176.882812 136.296875 176.882812 137.484375 C 176.882812 137.734375 176.945312 138.042969 177.007812 138.230469 C 177.195312 138.792969 177.632812 139.167969 178.195312 139.417969 C 177.882812 139.230469 177.632812 138.917969 177.445312 138.605469 C 177.320312 138.355469 177.257812 138.042969 177.257812 137.734375 C 177.320312 136.609375 178.257812 135.734375 179.316406 135.734375 Z M 179.316406 135.734375 " fill-opacity="1" fill-rule="nonzero"/><path fill="#ffffff" d="M 181.066406 140.480469 C 181.066406 140.230469 181.066406 140.042969 181.066406 139.792969 C 180.691406 140.105469 180.191406 140.355469 179.691406 140.480469 C 179.566406 140.792969 179.441406 143.976562 179.441406 145.289062 C 179.316406 147.910156 179.191406 150.535156 179.066406 153.15625 C 179.066406 153.28125 179.066406 153.40625 179.066406 153.46875 C 179.253906 153.46875 179.378906 153.46875 179.503906 153.46875 C 180.191406 153.46875 180.753906 153.46875 181.378906 153.46875 L 181.128906 140.980469 C 181.066406 140.855469 181.066406 140.667969 181.066406 140.480469 Z M 181.066406 140.480469 " fill-opacity="1" fill-rule="nonzero"/><path fill="#ffffff" d="M 196.742188 114.316406 C 197.492188 114.003906 198.050781 113.253906 198.050781 112.378906 C 198.050781 111.191406 197.117188 110.253906 195.929688 110.253906 C 195.054688 110.253906 194.304688 110.816406 193.992188 111.566406 C 194.367188 111.003906 194.992188 110.628906 195.679688 110.628906 C 196.804688 110.628906 197.675781 111.503906 197.675781 112.628906 C 197.613281 113.316406 197.304688 113.941406 196.742188 114.316406 Z M 196.742188 114.316406 " fill-opacity="1" fill-rule="nonzero"/><path fill="#ffffff" d="M 192.929688 153.15625 C 193.054688 152.84375 193.054688 152.34375 193.117188 151.597656 C 193.179688 147.410156 193.242188 143.226562 193.304688 139.042969 C 193.054688 138.605469 192.867188 138.042969 192.867188 137.484375 C 192.867188 136.859375 193.054688 136.296875 193.367188 135.859375 C 193.367188 135.484375 193.367188 135.171875 193.367188 134.796875 C 193.429688 133.671875 193.492188 132.550781 193.492188 131.425781 C 193.492188 131.300781 193.492188 131.175781 193.492188 131.050781 L 193.554688 126.929688 C 193.179688 126.554688 192.929688 126.054688 192.867188 125.492188 L 190.371094 153.53125 C 190.871094 153.59375 191.246094 153.65625 191.558594 153.59375 C 192.371094 153.71875 192.746094 153.59375 192.929688 153.15625 Z M 192.929688 153.15625 " fill-opacity="1" fill-rule="nonzero"/><g clip-path="url(#6a366dfc3a)"><path fill="#ffffff" d="M 168.765625 116.625 C 169.449219 116.625 169.949219 116.0625 169.949219 115.4375 L 169.949219 113.878906 L 170.636719 113.878906 L 171.261719 114.128906 L 171.324219 115.3125 C 171.386719 115.375 171.386719 115.4375 171.386719 115.5625 C 171.511719 116.9375 171.574219 118.3125 171.636719 119.746094 C 171.699219 120.996094 171.761719 122.183594 171.761719 123.433594 C 171.761719 123.558594 171.761719 123.683594 171.761719 123.808594 L 171.074219 124.054688 L 170.386719 124.054688 L 170.386719 122.371094 C 170.386719 121.683594 169.824219 121.183594 169.203125 121.183594 C 169.140625 121.183594 169.015625 121.183594 168.953125 121.183594 C 166.890625 121.308594 165.265625 122.996094 165.265625 125.054688 C 165.203125 127.304688 167.015625 129.175781 169.265625 129.175781 C 169.949219 129.175781 170.449219 128.613281 170.449219 127.992188 L 170.449219 126.429688 L 171.136719 126.429688 L 171.886719 126.742188 L 172.136719 131.550781 C 172.136719 131.988281 172.199219 132.425781 172.199219 132.863281 L 172.386719 136.359375 L 171.324219 136.734375 L 170.636719 136.734375 L 170.636719 135.171875 C 170.636719 134.484375 170.074219 133.984375 169.449219 133.984375 C 169.386719 133.984375 169.265625 133.984375 169.203125 133.984375 C 167.140625 134.109375 165.515625 135.796875 165.515625 137.859375 C 165.453125 140.105469 167.265625 141.980469 169.511719 141.980469 C 170.199219 141.980469 170.699219 141.417969 170.699219 140.792969 L 170.699219 139.230469 L 171.386719 139.230469 L 172.574219 139.667969 L 172.636719 141.292969 C 172.636719 141.292969 172.636719 141.355469 172.636719 141.355469 C 172.761719 142.105469 172.761719 142.851562 172.824219 143.601562 C 172.824219 144.039062 172.824219 144.476562 172.824219 144.976562 C 172.824219 146.851562 173.449219 148.410156 174.632812 149.785156 C 175.382812 150.597656 176.007812 151.597656 176.445312 152.65625 C 176.820312 153.53125 177.320312 153.84375 178.070312 153.65625 C 178.195312 153.65625 178.257812 153.59375 178.382812 153.59375 L 178.878906 145.539062 C 178.941406 143.914062 179.003906 142.230469 179.066406 140.605469 C 177.882812 140.542969 176.882812 139.792969 176.382812 138.792969 C 176.320312 138.730469 176.320312 138.667969 176.257812 138.605469 C 176.195312 138.542969 176.195312 138.480469 176.257812 138.355469 C 176.195312 138.105469 176.132812 137.859375 176.132812 137.609375 C 176.132812 135.921875 177.507812 134.609375 179.128906 134.609375 C 179.816406 134.609375 180.503906 134.859375 181.003906 135.234375 C 180.941406 132.675781 180.878906 130.175781 180.816406 127.617188 C 180.753906 127.617188 180.753906 127.617188 180.691406 127.617188 C 180.253906 127.929688 179.691406 128.054688 179.128906 128.054688 C 177.445312 128.054688 176.132812 126.679688 176.132812 125.054688 C 176.132812 123.371094 177.507812 122.058594 179.128906 122.058594 C 180.441406 122.058594 181.503906 122.871094 181.941406 123.992188 L 181.378906 117.75 C 181.316406 116.75 181.191406 115.8125 181.128906 114.75 C 180.566406 115.25 179.878906 115.5 179.128906 115.5 C 177.445312 115.5 176.132812 114.128906 176.132812 112.503906 C 176.132812 110.816406 177.507812 109.507812 179.128906 109.507812 C 180.816406 109.507812 182.128906 110.878906 182.128906 112.503906 C 182.128906 113.128906 181.941406 113.753906 181.628906 114.191406 L 181.691406 114.9375 L 182.066406 119.246094 C 182.128906 119.871094 182.253906 120.558594 182.316406 121.183594 C 182.503906 122.746094 182.628906 124.304688 182.816406 125.867188 C 182.941406 127.679688 183.128906 129.488281 183.316406 131.300781 C 183.6875 135.296875 184 139.292969 184.375 143.289062 C 184.625 146.476562 184.875 149.660156 185.25 152.84375 C 185.25 152.96875 185.375 153.15625 185.5 153.28125 C 185.6875 153.46875 185.9375 153.65625 186.1875 153.71875 C 186.1875 153.71875 186.25 153.71875 186.25 153.71875 C 186.4375 153.84375 186.75 153.84375 187.125 153.84375 C 187.3125 153.84375 187.4375 153.84375 187.5625 153.84375 C 187.6875 153.84375 187.875 153.84375 188 153.84375 C 188.371094 153.84375 188.683594 153.84375 188.871094 153.71875 C 188.871094 153.71875 188.933594 153.71875 188.933594 153.71875 C 189.121094 153.65625 189.433594 153.53125 189.621094 153.28125 C 189.746094 153.15625 189.871094 152.96875 189.871094 152.84375 C 190.183594 149.660156 190.433594 146.476562 190.746094 143.289062 C 191.121094 139.292969 191.433594 135.296875 191.808594 131.300781 C 191.996094 129.488281 192.183594 127.679688 192.308594 125.867188 C 192.496094 124.304688 192.621094 122.746094 192.808594 121.183594 C 192.871094 120.558594 192.929688 119.871094 193.054688 119.246094 L 193.429688 114.9375 L 193.492188 114.191406 C 193.179688 113.691406 192.992188 113.128906 192.992188 112.503906 C 192.992188 110.816406 194.367188 109.507812 195.992188 109.507812 C 197.675781 109.507812 198.988281 110.878906 198.988281 112.503906 C 198.988281 114.191406 197.613281 115.5 195.992188 115.5 C 195.242188 115.5 194.492188 115.1875 193.992188 114.75 C 193.929688 115.8125 193.804688 116.75 193.742188 117.75 L 193.179688 123.992188 C 193.617188 122.871094 194.742188 122.058594 195.992188 122.058594 C 197.675781 122.058594 198.988281 123.433594 198.988281 125.054688 C 198.988281 126.742188 197.613281 128.054688 195.992188 128.054688 C 195.429688 128.054688 194.867188 127.867188 194.429688 127.617188 C 194.367188 127.617188 194.367188 127.617188 194.304688 127.617188 C 194.242188 130.175781 194.179688 132.675781 194.117188 135.234375 C 194.617188 134.859375 195.304688 134.609375 195.992188 134.609375 C 197.675781 134.609375 198.988281 135.984375 198.988281 137.609375 C 198.988281 137.859375 198.925781 138.105469 198.863281 138.355469 C 198.863281 138.480469 198.863281 138.542969 198.863281 138.605469 C 198.800781 138.667969 198.800781 138.730469 198.738281 138.792969 C 198.300781 139.855469 197.304688 140.542969 196.054688 140.605469 C 196.117188 142.230469 196.179688 143.914062 196.242188 145.539062 L 196.742188 153.59375 C 196.867188 153.65625 196.992188 153.65625 197.054688 153.65625 C 197.800781 153.78125 198.238281 153.53125 198.675781 152.65625 C 199.113281 151.660156 199.738281 150.660156 200.488281 149.785156 C 201.738281 148.347656 202.359375 146.789062 202.300781 144.976562 C 202.300781 144.539062 202.300781 144.101562 202.300781 143.601562 C 202.300781 142.851562 202.359375 142.105469 202.484375 141.355469 C 202.484375 141.355469 202.484375 141.292969 202.484375 141.292969 L 202.546875 139.667969 L 203.734375 139.230469 L 204.421875 139.230469 L 204.421875 140.792969 C 204.421875 141.480469 204.921875 141.980469 205.609375 141.980469 C 207.855469 141.980469 209.667969 140.105469 209.605469 137.859375 C 209.542969 135.796875 207.917969 134.109375 205.921875 133.984375 C 205.859375 133.984375 205.734375 133.984375 205.671875 133.984375 C 204.984375 133.984375 204.484375 134.546875 204.484375 135.171875 L 204.484375 136.734375 L 203.796875 136.734375 L 202.734375 136.359375 L 202.921875 132.863281 C 202.921875 132.425781 202.984375 131.988281 202.984375 131.550781 L 203.234375 126.742188 L 203.984375 126.429688 L 204.671875 126.429688 L 204.671875 127.992188 C 204.671875 128.675781 205.171875 129.175781 205.859375 129.175781 C 208.105469 129.175781 209.917969 127.304688 209.855469 125.054688 C 209.792969 122.996094 208.167969 121.308594 206.171875 121.183594 C 206.109375 121.183594 205.984375 121.183594 205.921875 121.183594 C 205.234375 121.183594 204.734375 121.746094 204.734375 122.371094 L 204.734375 123.929688 L 204.046875 123.929688 L 203.359375 123.683594 C 203.359375 123.558594 203.359375 123.433594 203.359375 123.308594 C 203.421875 122.058594 203.421875 120.871094 203.484375 119.621094 C 203.546875 118.25 203.609375 116.8125 203.734375 115.4375 C 203.734375 115.375 203.796875 115.25 203.796875 115.1875 L 203.859375 114.003906 L 204.484375 113.753906 L 205.171875 113.753906 L 205.171875 115.3125 C 205.171875 116 205.671875 116.5 206.359375 116.5 C 208.605469 116.5 210.417969 114.625 210.355469 112.378906 C 210.292969 110.316406 208.667969 108.632812 206.671875 108.507812 C 206.609375 108.507812 206.484375 108.507812 206.421875 108.507812 C 205.734375 108.507812 205.234375 109.070312 205.234375 109.695312 L 205.234375 111.253906 L 204.546875 111.253906 L 204.046875 111.066406 L 204.046875 110.941406 C 204.046875 110.941406 204.046875 110.878906 204.046875 110.878906 C 204.046875 110.253906 204.109375 109.695312 204.109375 109.070312 C 204.109375 108.632812 204.171875 108.195312 204.171875 107.757812 L 204.359375 104.386719 C 204.421875 102.886719 204.484375 101.386719 204.484375 99.828125 C 203.921875 99.578125 203.421875 99.265625 202.859375 99.078125 C 201.863281 98.640625 200.800781 98.203125 199.738281 97.828125 C 195.804688 96.453125 191.683594 95.828125 187.625 95.890625 C 183.503906 95.828125 179.441406 96.453125 175.507812 97.828125 C 174.445312 98.203125 173.449219 98.578125 172.386719 99.078125 C 171.824219 99.328125 171.324219 99.578125 170.761719 99.828125 C 170.824219 101.324219 170.824219 102.824219 170.886719 104.386719 L 171.074219 107.757812 C 171.074219 108.195312 171.136719 108.632812 171.136719 109.070312 C 171.199219 109.695312 171.199219 110.253906 171.199219 110.878906 C 171.199219 110.878906 171.199219 110.941406 171.199219 110.941406 L 171.199219 111.066406 L 170.699219 111.253906 L 170.011719 111.253906 L 170.011719 109.878906 C 170.011719 109.195312 169.449219 108.695312 168.828125 108.695312 C 168.765625 108.695312 168.640625 108.695312 168.578125 108.695312 C 166.515625 108.820312 164.890625 110.503906 164.890625 112.566406 C 164.703125 114.8125 166.515625 116.625 168.765625 116.625 Z M 168.765625 116.625 " fill-opacity="1" fill-rule="nonzero"/></g><path fill="#ffffff" d="M 197.242188 126.554688 C 197.738281 126.179688 198.050781 125.554688 198.050781 124.929688 C 198.050781 123.746094 197.117188 122.808594 195.929688 122.808594 C 195.054688 122.808594 194.304688 123.371094 193.992188 124.117188 C 194.367188 123.558594 194.992188 123.183594 195.679688 123.183594 C 196.804688 123.183594 197.675781 124.054688 197.675781 125.179688 C 197.675781 125.554688 197.554688 125.867188 197.429688 126.179688 C 197.367188 126.304688 197.304688 126.429688 197.242188 126.554688 Z M 197.242188 126.554688 " fill-opacity="1" fill-rule="nonzero"/><path fill="#ffffff" d="M 196.742188 139.417969 C 197.242188 139.167969 197.675781 138.792969 197.925781 138.230469 C 198.050781 137.984375 198.050781 137.734375 198.050781 137.484375 C 198.050781 136.296875 197.117188 135.359375 195.929688 135.359375 C 195.054688 135.359375 194.367188 135.859375 193.992188 136.609375 C 194.367188 136.109375 194.929688 135.734375 195.617188 135.734375 C 196.742188 135.734375 197.613281 136.609375 197.613281 137.734375 C 197.613281 138.042969 197.554688 138.292969 197.429688 138.605469 C 197.304688 138.917969 197.054688 139.230469 196.742188 139.417969 Z M 196.742188 139.417969 " fill-opacity="1" fill-rule="nonzero"/><path fill="#ffffff" d="M 193.929688 140.480469 C 193.929688 140.667969 193.929688 140.855469 193.929688 141.042969 L 193.679688 153.53125 C 194.304688 153.53125 194.867188 153.53125 195.554688 153.53125 C 195.679688 153.53125 195.867188 153.53125 195.992188 153.53125 C 195.992188 153.40625 195.992188 153.28125 195.992188 153.21875 C 195.867188 150.597656 195.742188 147.972656 195.617188 145.351562 C 195.617188 144.039062 195.492188 140.855469 195.367188 140.542969 C 194.867188 140.417969 194.367188 140.230469 193.992188 139.855469 C 193.929688 140.042969 193.929688 140.292969 193.929688 140.480469 Z M 193.929688 140.480469 " fill-opacity="1" fill-rule="nonzero"/><path fill="#ffffff" d="M 302.714844 130.113281 C 302.777344 130.175781 302.839844 130.238281 302.902344 130.300781 C 291.351562 133.421875 279.046875 135.859375 266.871094 138.292969 C 266.933594 138.417969 266.996094 138.480469 266.996094 138.605469 C 269.492188 138.417969 271.992188 138.292969 274.488281 138.105469 C 281.234375 137.546875 287.976562 136.921875 294.910156 136.421875 C 301.402344 135.984375 305.960938 133.671875 309.460938 130.550781 C 313.269531 127.179688 315.765625 123.183594 315.953125 118.25 C 315.953125 118.0625 315.953125 117.8125 315.890625 117.6875 C 314.019531 118.5625 312.019531 119.308594 310.085938 120.121094 C 297.46875 125.804688 282.855469 129.800781 268.058594 133.609375 C 267.121094 133.859375 266.558594 134.546875 265.808594 135.046875 C 265.933594 135.109375 266.058594 135.171875 266.121094 135.296875 C 278.296875 133.796875 290.664062 132.175781 302.714844 130.113281 Z M 302.714844 130.113281 " fill-opacity="1" fill-rule="nonzero"/><path fill="#ffffff" d="M 221.46875 169.082031 C 223.40625 169.269531 225.34375 169.457031 227.527344 169.644531 C 226.777344 167.832031 222.09375 166.394531 219.097656 166.894531 C 220.972656 167.394531 222.71875 167.894531 224.90625 168.457031 C 223.46875 168.582031 222.53125 168.644531 221.59375 168.769531 C 221.59375 168.832031 221.53125 168.957031 221.46875 169.082031 Z M 221.46875 169.082031 " fill-opacity="1" fill-rule="nonzero"/><path fill="#ffffff" d="M 224.28125 159.777344 C 227.527344 160.527344 230.898438 161.214844 234.273438 161.960938 C 234.273438 162.023438 234.210938 162.085938 234.210938 162.148438 C 231.585938 162.210938 229.027344 162.335938 226.277344 162.460938 C 231.023438 164.148438 239.207031 163.835938 243.078125 161.898438 C 236.519531 161.089844 230.402344 160.339844 224.46875 159.589844 C 224.40625 159.652344 224.34375 159.714844 224.28125 159.777344 Z M 224.28125 159.777344 " fill-opacity="1" fill-rule="nonzero"/><path fill="#ffffff" d="M 225.03125 153.09375 C 225.03125 153.15625 224.96875 153.21875 224.96875 153.28125 C 229.027344 153.78125 233.148438 154.34375 237.394531 154.84375 C 237.394531 154.90625 237.394531 154.96875 237.394531 155.03125 C 234.210938 155.21875 231.085938 155.40625 227.902344 155.59375 C 233.148438 157.402344 243.640625 156.902344 251.820312 153.65625 C 242.140625 153.40625 233.398438 153.28125 225.03125 153.09375 Z M 225.03125 153.09375 " fill-opacity="1" fill-rule="nonzero"/><path fill="#ffffff" d="M 260.5 143.851562 C 260.4375 143.789062 260.375 143.664062 260.3125 143.601562 C 247.074219 144.601562 234.523438 145.664062 222.59375 146.664062 C 222.59375 146.726562 222.59375 146.789062 222.59375 146.851562 C 228.964844 146.976562 235.582031 147.039062 242.390625 147.164062 C 242.390625 147.226562 242.390625 147.289062 242.390625 147.289062 C 235.519531 148.160156 228.839844 149.035156 222.28125 149.847656 C 222.28125 149.910156 222.28125 149.910156 222.28125 149.972656 C 224.28125 150.035156 226.339844 150.160156 228.339844 150.160156 C 232.023438 150.222656 235.769531 150.347656 239.582031 150.285156 C 245.636719 150.222656 251.007812 148.472656 255.878906 146.226562 C 257.628906 145.476562 259.0625 144.601562 260.5 143.851562 Z M 260.5 143.851562 " fill-opacity="1" fill-rule="nonzero"/><path fill="#ffffff" d="M 210.417969 171.515625 C 212.351562 172.703125 214.039062 173.703125 215.851562 174.828125 C 216.472656 173.328125 213.851562 171.765625 210.417969 171.515625 Z M 210.417969 171.515625 " fill-opacity="1" fill-rule="nonzero"/><path fill="#ffffff" d="M 192.308594 178.449219 C 192.308594 175.578125 192.308594 172.703125 192.308594 169.832031 C 192.308594 168.019531 192.308594 167.832031 190.746094 167.894531 C 190.496094 167.894531 190.246094 167.894531 189.996094 167.957031 C 189.933594 167.957031 189.933594 167.957031 189.871094 168.019531 C 189.808594 168.019531 189.683594 168.082031 189.621094 168.082031 C 189.621094 168.144531 189.621094 168.144531 189.621094 168.207031 C 189.433594 168.332031 189.308594 168.519531 189.308594 168.707031 C 189.246094 172.453125 189.246094 176.199219 189.246094 180.074219 C 189.371094 180.074219 189.496094 180.074219 189.621094 180.074219 C 190.496094 180.074219 191.246094 180.074219 192.183594 180.074219 C 192.246094 179.449219 192.308594 178.949219 192.308594 178.449219 Z M 192.308594 178.449219 " fill-opacity="1" fill-rule="nonzero"/><path fill="#ffffff" d="M 193.492188 179.949219 C 193.679688 180.011719 193.929688 180.074219 194.242188 180.074219 C 194.992188 180.074219 195.554688 180.011719 195.554688 179.074219 C 195.554688 175.699219 195.554688 172.328125 195.554688 169.019531 C 195.554688 168.082031 195.117188 167.957031 194.304688 167.957031 C 194.179688 167.957031 194.054688 167.957031 193.929688 167.957031 C 192.683594 167.832031 192.683594 168.144531 192.683594 169.894531 C 192.683594 173.203125 192.683594 176.574219 192.683594 180.011719 C 192.992188 179.949219 193.242188 179.949219 193.492188 179.949219 Z M 193.492188 179.949219 " fill-opacity="1" fill-rule="nonzero"/><path fill="#ffffff" d="M 195.992188 180.011719 C 196.179688 180.011719 196.367188 180.011719 196.554688 180.011719 C 196.804688 180.136719 197.117188 180.136719 197.492188 180.011719 C 197.492188 176.199219 197.492188 172.453125 197.492188 168.707031 C 197.492188 168.582031 197.429688 168.519531 197.304688 168.394531 C 197.242188 168.144531 197.054688 167.957031 196.804688 167.957031 C 196.617188 167.957031 196.304688 167.957031 195.992188 168.082031 C 195.992188 172.015625 195.992188 175.949219 195.992188 180.011719 Z M 195.992188 180.011719 " fill-opacity="1" fill-rule="nonzero"/><path fill="#ffffff" d="M 290.039062 142.292969 C 282.855469 142.542969 275.800781 142.789062 268.867188 143.101562 C 267.996094 143.164062 267.121094 143.476562 266.371094 143.851562 C 265.621094 144.226562 265.058594 144.789062 264.183594 145.476562 C 274.988281 145.351562 285.917969 145.414062 297.15625 145.539062 C 297.15625 145.601562 297.21875 145.664062 297.21875 145.726562 C 284.980469 146.726562 272.800781 147.660156 261.125 148.785156 C 261.125 148.847656 261.125 148.910156 261.125 148.972656 C 261.75 149.035156 262.3125 149.097656 262.9375 149.097656 C 271.367188 149.160156 280.109375 149.472656 289.164062 149.660156 C 293.410156 149.785156 297.34375 149.347656 300.96875 148.535156 C 300.96875 148.535156 300.96875 148.535156 301.027344 148.535156 C 301.652344 148.347656 308.023438 146.601562 312.019531 141.542969 C 313.269531 139.917969 314.332031 137.984375 314.832031 135.671875 C 314.894531 135.609375 306.210938 141.667969 290.039062 142.292969 Z M 290.039062 142.292969 " fill-opacity="1" fill-rule="nonzero"/><path fill="#ffffff" d="M 287.226562 153.78125 C 278.796875 153.34375 270.742188 153.03125 263 152.90625 C 263 152.96875 262.9375 153.03125 262.9375 153.15625 C 270.429688 153.90625 278.234375 154.78125 286.480469 155.90625 C 286.480469 155.96875 286.480469 156.03125 286.480469 156.09375 C 275.925781 155.78125 265.808594 155.65625 256.191406 155.78125 C 256.191406 155.84375 256.128906 155.96875 256.128906 156.03125 C 258.691406 156.34375 261.25 156.78125 263.871094 157.027344 C 271.242188 157.839844 279.109375 158.777344 287.226562 159.089844 C 287.289062 159.089844 287.351562 159.089844 287.414062 159.089844 C 296.40625 159.152344 301.589844 156.839844 304.527344 154.84375 C 306.835938 153.21875 307.648438 151.785156 307.648438 151.785156 C 302.089844 154.71875 287.226562 153.78125 287.226562 153.78125 Z M 287.226562 153.78125 " fill-opacity="1" fill-rule="nonzero"/><path fill="#ffffff" d="M 271.679688 162.460938 C 269.429688 162.023438 267.183594 161.585938 264.996094 161.214844 C 261 160.527344 257.003906 160.089844 253.070312 159.714844 C 251.945312 159.589844 250.695312 159.777344 249.570312 159.839844 C 249.570312 159.964844 249.507812 160.027344 249.507812 160.152344 C 256.253906 161.402344 263.433594 162.773438 270.992188 164.398438 C 270.992188 164.460938 270.929688 164.523438 270.929688 164.585938 C 265.121094 164.210938 259.5625 163.898438 254.191406 163.710938 C 254.191406 163.773438 254.128906 163.898438 254.128906 163.960938 C 260.4375 164.773438 267.121094 166.023438 274.238281 166.582031 C 277.113281 167.144531 279.859375 167.144531 282.230469 166.894531 C 283.917969 166.707031 285.417969 166.394531 286.730469 166.085938 C 290.414062 165.148438 292.722656 163.835938 292.722656 163.835938 C 286.480469 165.335938 271.679688 162.460938 271.679688 162.460938 Z M 271.679688 162.460938 " fill-opacity="1" fill-rule="nonzero"/><path fill="#ffffff" d="M 256.753906 168.894531 C 256.441406 168.832031 256.128906 168.769531 255.816406 168.707031 C 251.132812 168.082031 246.699219 167.394531 242.453125 166.832031 C 242.390625 166.957031 242.265625 167.019531 242.203125 167.144531 C 247.261719 168.519531 252.570312 169.894531 258.128906 171.390625 C 258.316406 171.390625 258.503906 171.453125 258.691406 171.453125 C 258.75 171.390625 258.875 171.390625 259 171.390625 C 259.1875 171.390625 259.375 171.390625 259.5625 171.390625 C 260.1875 171.390625 260.8125 171.390625 261.4375 171.328125 C 265.558594 171.015625 269.804688 169.644531 269.804688 169.644531 C 265.558594 170.457031 256.753906 168.894531 256.753906 168.894531 Z M 256.753906 168.894531 " fill-opacity="1" fill-rule="nonzero"/><path fill="#ffffff" d="M 239.332031 174.578125 C 237.207031 173.453125 233.773438 172.515625 230.773438 172.140625 C 233.210938 173.328125 235.769531 174.453125 238.332031 175.636719 C 239.332031 176.074219 240.328125 176.324219 241.390625 176.449219 C 244.886719 176.824219 248.074219 175.699219 248.074219 175.699219 C 243.640625 176.699219 239.332031 174.578125 239.332031 174.578125 Z M 239.332031 174.578125 " fill-opacity="1" fill-rule="nonzero"/><path fill="#ffffff" d="M 215.664062 154.21875 C 213.164062 163.835938 202.113281 164.773438 202.113281 164.773438 L 202.113281 168.019531 C 211.355469 166.769531 214.914062 164.460938 217.910156 158.089844 C 219.160156 155.34375 219.035156 152.65625 218.285156 150.410156 C 217.160156 146.789062 214.664062 144.226562 214.664062 144.226562 C 215.164062 143.789062 217.660156 143.101562 220.472656 142.355469 C 229.027344 140.167969 243.265625 138.605469 243.265625 138.605469 C 245.449219 138.355469 247.636719 138.167969 249.820312 137.921875 C 249.882812 138.042969 249.882812 138.105469 249.945312 138.230469 C 240.828125 140.105469 231.835938 141.855469 223.09375 143.601562 C 223.09375 143.726562 223.15625 143.851562 223.15625 143.976562 C 225.46875 143.789062 227.839844 143.726562 230.214844 143.476562 C 234.898438 143.039062 239.644531 142.480469 244.515625 141.980469 C 251.757812 141.167969 257.128906 138.417969 260.5 134.296875 C 260.9375 133.796875 261.4375 133.296875 261.875 132.738281 C 261.9375 132.675781 261.875 132.613281 261.8125 132.425781 C 259.625 132.863281 257.441406 133.296875 255.316406 133.671875 L 223.65625 139.480469 C 222.28125 139.667969 221.035156 139.917969 219.910156 140.167969 L 219.847656 140.167969 C 212.351562 141.917969 210.417969 144.664062 210.417969 144.664062 C 215.351562 146.976562 216.351562 151.597656 215.664062 154.21875 Z M 215.664062 154.21875 " fill-opacity="1" fill-rule="nonzero"/><path fill="#ffffff" d="M 65.539062 130.550781 C 69.097656 133.671875 73.59375 135.921875 80.085938 136.421875 C 86.957031 136.921875 93.765625 137.609375 100.507812 138.105469 C 103.007812 138.292969 105.566406 138.417969 108.003906 138.605469 C 108.066406 138.480469 108.128906 138.417969 108.128906 138.292969 C 95.949219 135.859375 83.648438 133.421875 72.09375 130.300781 C 72.15625 130.238281 72.21875 130.175781 72.28125 130.113281 C 84.335938 132.238281 96.699219 133.796875 108.8125 135.359375 C 108.9375 135.296875 109.0625 135.234375 109.125 135.109375 C 108.375 134.609375 107.816406 133.921875 106.878906 133.671875 C 92.078125 129.863281 77.464844 125.867188 64.851562 120.183594 C 62.976562 119.308594 60.980469 118.5625 59.042969 117.75 C 59.042969 117.875 59.042969 118.0625 59.042969 118.3125 C 59.230469 123.183594 61.664062 127.242188 65.539062 130.550781 Z M 65.539062 130.550781 " fill-opacity="1" fill-rule="nonzero"/><path fill="#ffffff" d="M 153.339844 168.769531 C 152.402344 168.707031 151.464844 168.582031 150.03125 168.457031 C 152.214844 167.894531 153.964844 167.394531 155.835938 166.894531 C 152.839844 166.457031 148.15625 167.894531 147.40625 169.644531 C 149.59375 169.457031 151.527344 169.269531 153.464844 169.082031 C 153.464844 168.957031 153.402344 168.832031 153.339844 168.769531 Z M 153.339844 168.769531 " fill-opacity="1" fill-rule="nonzero"/><path fill="#ffffff" d="M 140.726562 162.148438 C 140.726562 162.085938 140.664062 162.023438 140.664062 161.960938 C 144.097656 161.214844 147.40625 160.527344 150.652344 159.777344 C 150.589844 159.714844 150.53125 159.652344 150.46875 159.589844 C 144.535156 160.339844 138.414062 161.089844 131.855469 161.898438 C 135.730469 163.835938 143.847656 164.148438 148.65625 162.460938 C 145.96875 162.335938 143.347656 162.210938 140.726562 162.148438 Z M 140.726562 162.148438 " fill-opacity="1" fill-rule="nonzero"/><path fill="#ffffff" d="M 147.03125 155.65625 C 143.847656 155.46875 140.726562 155.28125 137.539062 155.09375 C 137.539062 155.03125 137.539062 154.96875 137.539062 154.90625 C 141.785156 154.40625 145.96875 153.84375 149.96875 153.34375 C 149.96875 153.28125 149.90625 153.21875 149.90625 153.15625 C 141.535156 153.34375 132.792969 153.46875 123.113281 153.78125 C 131.359375 156.964844 141.785156 157.464844 147.03125 155.65625 Z M 147.03125 155.65625 " fill-opacity="1" fill-rule="nonzero"/><path fill="#ffffff" d="M 152.339844 146.851562 C 152.339844 146.789062 152.339844 146.726562 152.339844 146.664062 C 140.414062 145.664062 127.859375 144.539062 114.621094 143.601562 C 114.558594 143.664062 114.496094 143.789062 114.433594 143.851562 C 115.933594 144.664062 117.371094 145.539062 118.929688 146.226562 C 123.800781 148.472656 129.171875 150.222656 135.230469 150.285156 C 139.039062 150.347656 142.785156 150.222656 146.46875 150.160156 C 148.53125 150.097656 150.53125 150.035156 152.527344 149.972656 C 152.527344 149.910156 152.527344 149.910156 152.527344 149.847656 C 146.03125 149.035156 139.289062 148.160156 132.417969 147.289062 C 132.417969 147.226562 132.417969 147.164062 132.417969 147.164062 C 139.351562 147.039062 145.96875 146.914062 152.339844 146.851562 Z M 152.339844 146.851562 " fill-opacity="1" fill-rule="nonzero"/><path fill="#ffffff" d="M 159.148438 174.765625 C 160.957031 173.703125 162.644531 172.640625 164.582031 171.453125 C 161.082031 171.765625 158.460938 173.328125 159.148438 174.765625 Z M 159.148438 174.765625 " fill-opacity="1" fill-rule="nonzero"/><path fill="#ffffff" d="M 187.5 168.019531 C 187.1875 168.019531 186.8125 168.019531 186.4375 168.019531 C 186.3125 168.019531 186.25 168.019531 186.125 168.019531 C 186.125 172.015625 186.125 175.949219 186.125 180.011719 C 186.25 180.011719 186.3125 180.011719 186.4375 180.011719 C 186.8125 180.011719 187.125 180.011719 187.5 180.011719 C 187.8125 180.011719 188.183594 180.011719 188.558594 180.011719 C 188.683594 180.011719 188.746094 180.011719 188.871094 180.011719 C 188.871094 176.011719 188.871094 172.078125 188.871094 168.019531 C 188.746094 168.019531 188.683594 168.019531 188.558594 168.019531 C 188.183594 168.019531 187.8125 168.019531 187.5 168.019531 Z M 187.5 168.019531 " fill-opacity="1" fill-rule="nonzero"/><path fill="#ffffff" d="M 185.125 168.019531 C 185.0625 168.019531 185 167.957031 185 167.957031 C 184.75 167.894531 184.5 167.894531 184.25 167.894531 C 182.753906 167.832031 182.753906 167.957031 182.691406 169.832031 C 182.691406 172.703125 182.691406 175.578125 182.691406 178.449219 C 182.691406 178.949219 182.753906 179.449219 182.816406 180.011719 C 183.6875 180.011719 184.5 180.011719 185.375 180.011719 C 185.5 180.011719 185.625 180.011719 185.75 180.011719 C 185.75 176.136719 185.75 172.390625 185.6875 168.644531 C 185.6875 168.519531 185.5625 168.332031 185.375 168.144531 C 185.375 168.082031 185.375 168.082031 185.375 168.019531 C 185.25 168.082031 185.1875 168.019531 185.125 168.019531 Z M 185.125 168.019531 " fill-opacity="1" fill-rule="nonzero"/><path fill="#ffffff" d="M 180.691406 180.074219 C 181.003906 180.074219 181.253906 180.074219 181.441406 179.949219 C 181.691406 179.949219 182.003906 179.949219 182.253906 179.949219 C 182.253906 176.511719 182.253906 173.203125 182.253906 169.832031 C 182.253906 168.082031 182.253906 167.769531 181.003906 167.894531 C 180.878906 167.894531 180.753906 167.894531 180.628906 167.894531 C 179.816406 167.894531 179.378906 168.082031 179.378906 168.957031 C 179.378906 172.328125 179.378906 175.699219 179.378906 179.011719 C 179.441406 180.011719 180.003906 180.074219 180.691406 180.074219 Z M 180.691406 180.074219 " fill-opacity="1" fill-rule="nonzero"/><path fill="#ffffff" d="M 178.445312 180.011719 C 178.632812 180.011719 178.816406 180.011719 179.003906 180.011719 C 179.003906 176.011719 179.003906 172.078125 179.003906 168.082031 C 178.695312 167.957031 178.445312 167.957031 178.195312 167.957031 C 177.945312 167.957031 177.757812 168.144531 177.695312 168.394531 C 177.570312 168.519531 177.507812 168.582031 177.507812 168.707031 C 177.445312 172.453125 177.507812 176.199219 177.507812 180.011719 C 177.882812 180.074219 178.195312 180.136719 178.445312 180.011719 Z M 178.445312 180.011719 " fill-opacity="1" fill-rule="nonzero"/><path fill="#ffffff" d="M 73.96875 148.472656 C 77.589844 149.285156 81.523438 149.660156 85.769531 149.597656 C 94.824219 149.410156 103.628906 149.097656 112 149.035156 C 112.625 149.035156 113.183594 148.972656 113.808594 148.910156 C 113.808594 148.847656 113.808594 148.785156 113.808594 148.722656 C 102.132812 147.597656 89.953125 146.664062 77.714844 145.664062 C 77.714844 145.601562 77.777344 145.539062 77.777344 145.476562 C 89.019531 145.351562 99.945312 145.289062 110.75 145.414062 C 109.875 144.789062 109.3125 144.226562 108.5625 143.789062 C 107.878906 143.414062 107.003906 143.101562 106.066406 143.039062 C 99.195312 142.726562 92.078125 142.480469 84.894531 142.230469 C 68.722656 141.605469 60.042969 135.546875 60.042969 135.546875 C 60.542969 137.859375 61.601562 139.792969 62.851562 141.417969 C 66.910156 146.539062 73.28125 148.285156 73.96875 148.472656 C 73.90625 148.472656 73.96875 148.472656 73.96875 148.472656 Z M 73.96875 148.472656 " fill-opacity="1" fill-rule="nonzero"/><path fill="#ffffff" d="M 87.769531 159.089844 C 95.949219 158.714844 103.753906 157.839844 111.125 157.027344 C 113.746094 156.71875 116.308594 156.34375 118.867188 156.03125 C 118.867188 155.96875 118.804688 155.84375 118.804688 155.78125 C 109.1875 155.65625 99.070312 155.78125 88.519531 156.09375 C 88.519531 156.03125 88.519531 155.96875 88.519531 155.90625 C 96.699219 154.78125 104.566406 153.90625 112.0625 153.15625 C 112.0625 153.09375 112 153.03125 112 152.90625 C 104.253906 153.03125 96.199219 153.34375 87.769531 153.78125 C 87.769531 153.78125 72.90625 154.65625 67.410156 151.722656 C 67.410156 151.722656 68.222656 153.15625 70.535156 154.78125 C 73.40625 156.839844 78.652344 159.089844 87.644531 159.027344 C 87.644531 159.089844 87.707031 159.089844 87.769531 159.089844 Z M 87.769531 159.089844 " fill-opacity="1" fill-rule="nonzero"/><path fill="#ffffff" d="M 100.757812 166.582031 C 107.878906 166.023438 114.496094 164.710938 120.867188 163.960938 C 120.867188 163.898438 120.804688 163.773438 120.804688 163.710938 C 115.433594 163.898438 109.8125 164.210938 104.066406 164.585938 C 104.066406 164.523438 104.003906 164.460938 104.003906 164.398438 C 111.5625 162.773438 118.679688 161.402344 125.488281 160.152344 C 125.488281 160.027344 125.425781 159.964844 125.425781 159.839844 C 124.238281 159.777344 123.050781 159.589844 121.929688 159.714844 C 118.054688 160.089844 114.058594 160.527344 110 161.214844 C 107.816406 161.585938 105.566406 162.023438 103.320312 162.460938 C 103.320312 162.460938 88.519531 165.335938 82.210938 163.835938 C 82.210938 163.835938 84.523438 165.148438 88.207031 166.085938 C 89.515625 166.394531 91.078125 166.707031 92.703125 166.894531 C 95.199219 167.144531 97.886719 167.144531 100.757812 166.582031 Z M 100.757812 166.582031 " fill-opacity="1" fill-rule="nonzero"/><path fill="#ffffff" d="M 132.542969 166.832031 C 128.234375 167.394531 123.800781 168.144531 119.179688 168.707031 C 118.867188 168.769531 118.554688 168.832031 118.242188 168.894531 C 118.242188 168.894531 109.4375 170.457031 105.316406 169.644531 C 105.316406 169.644531 109.5625 171.015625 113.683594 171.328125 C 114.308594 171.390625 114.933594 171.390625 115.558594 171.390625 C 115.746094 171.390625 115.933594 171.390625 116.121094 171.390625 C 116.246094 171.390625 116.308594 171.390625 116.433594 171.453125 C 116.621094 171.453125 116.808594 171.390625 116.996094 171.390625 C 122.550781 169.894531 127.859375 168.457031 132.917969 167.144531 C 132.730469 167.019531 132.605469 166.957031 132.542969 166.832031 Z M 132.542969 166.832031 " fill-opacity="1" fill-rule="nonzero"/><path fill="#ffffff" d="M 133.542969 176.449219 C 134.542969 176.324219 135.605469 176.074219 136.601562 175.636719 C 139.164062 174.453125 141.722656 173.265625 144.160156 172.140625 C 141.160156 172.515625 137.726562 173.453125 135.605469 174.578125 C 135.605469 174.578125 131.296875 176.699219 126.800781 175.699219 C 126.800781 175.699219 130.046875 176.886719 133.542969 176.449219 Z M 133.542969 176.449219 " fill-opacity="1" fill-rule="nonzero"/><path fill="#ffffff" d="M 114.496094 134.296875 C 117.867188 138.417969 123.175781 141.167969 130.484375 141.980469 C 135.355469 142.542969 140.101562 143.039062 144.785156 143.476562 C 147.15625 143.726562 149.46875 143.789062 151.839844 143.976562 C 151.839844 143.851562 151.902344 143.726562 151.902344 143.601562 C 143.160156 141.855469 134.167969 140.042969 125.050781 138.230469 C 125.113281 138.105469 125.113281 138.042969 125.175781 137.921875 C 127.359375 138.167969 129.546875 138.355469 131.734375 138.605469 C 131.734375 138.605469 146.03125 140.105469 154.464844 142.230469 C 157.273438 142.976562 159.773438 143.664062 160.269531 144.101562 C 160.269531 144.101562 157.773438 146.664062 156.648438 150.285156 C 155.960938 152.53125 155.773438 155.21875 157.023438 157.964844 C 160.019531 164.398438 163.582031 166.707031 172.824219 167.894531 L 172.824219 164.648438 C 172.824219 164.648438 161.769531 163.710938 159.273438 154.09375 C 158.585938 151.472656 159.585938 146.851562 164.582031 144.601562 C 164.582031 144.601562 162.644531 141.792969 155.152344 140.105469 L 155.089844 140.105469 C 153.964844 139.855469 152.714844 139.605469 151.339844 139.417969 L 119.679688 133.609375 C 117.496094 133.175781 115.371094 132.800781 113.183594 132.363281 C 113.121094 132.550781 113.058594 132.613281 113.121094 132.675781 C 113.558594 133.300781 114.058594 133.796875 114.496094 134.296875 Z M 114.496094 134.296875 " fill-opacity="1" fill-rule="nonzero"/><path fill="#ffffff" d="M 280.921875 243.003906 C 280.796875 243.003906 280.671875 242.941406 280.609375 242.941406 C 280.171875 242.816406 279.671875 242.878906 279.234375 242.878906 C 279.046875 242.878906 278.921875 242.878906 278.734375 242.878906 C 254.628906 242.878906 230.464844 242.878906 206.359375 242.878906 L 168.515625 242.878906 C 144.410156 242.878906 120.242188 242.878906 96.136719 242.878906 C 95.949219 242.878906 95.824219 242.878906 95.636719 242.878906 C 95.199219 242.878906 94.761719 242.816406 94.261719 242.941406 C 94.136719 242.941406 94.015625 243.003906 93.953125 243.003906 C 93.328125 243.128906 92.703125 243.253906 92.140625 243.503906 L 91.515625 243.753906 L 91.953125 244.253906 C 92.265625 244.5625 95.824219 247.5 96.449219 247.9375 L 97.199219 248.25 L 97.324219 247.75 C 97.699219 246.5 98.574219 245.75 100.007812 245.375 C 101.445312 245.0625 102.757812 244.875 103.941406 244.875 C 125.363281 244.875 147.15625 244.875 168.203125 244.875 L 177.195312 244.875 L 177.195312 244.8125 L 197.054688 244.8125 L 197.054688 244.875 L 206.671875 244.875 C 227.714844 244.875 249.507812 244.875 270.929688 244.875 C 272.117188 244.875 273.425781 245.0625 274.863281 245.375 C 276.300781 245.6875 277.175781 246.4375 277.546875 247.75 L 277.671875 248.25 L 278.359375 248 L 278.421875 247.9375 C 279.046875 247.5 282.605469 244.5625 282.917969 244.253906 L 283.355469 243.753906 L 282.730469 243.503906 C 282.171875 243.253906 281.546875 243.128906 280.921875 243.003906 Z M 280.921875 243.003906 " fill-opacity="1" fill-rule="nonzero"/><g clip-path="url(#0af3bf7bfd)"><path fill="#ffffff" d="M 271.867188 249.808594 C 271.742188 249.558594 271.492188 249.308594 271.242188 249.246094 C 270.992188 249.1875 270.742188 249.1875 270.554688 249.1875 C 270.492188 249.1875 270.429688 249.1875 270.367188 249.1875 L 270.304688 249.1875 C 270.242188 249.1875 270.179688 249.1875 270.117188 249.1875 C 249.011719 249.1875 227.902344 249.1875 206.796875 249.1875 L 195.679688 249.1875 C 195.742188 249.371094 195.742188 249.558594 195.742188 249.808594 C 195.742188 250.308594 195.742188 250.746094 195.804688 251.183594 L 196.304688 251.183594 C 196.304688 251.183594 196.367188 251.183594 196.367188 251.183594 C 196.429688 251.183594 196.492188 251.183594 196.554688 251.183594 L 216.164062 251.183594 C 216.410156 251.433594 216.660156 251.746094 216.785156 252.121094 C 216.785156 252.183594 216.847656 252.246094 216.847656 252.308594 C 216.847656 252.371094 216.847656 252.433594 216.910156 252.496094 C 216.972656 252.746094 216.972656 253.058594 216.910156 253.308594 C 216.847656 253.746094 216.597656 254.117188 216.164062 254.429688 C 215.851562 254.679688 215.476562 254.929688 215.101562 255.179688 C 214.851562 255.367188 214.601562 255.492188 214.351562 255.679688 C 214.289062 255.679688 214.289062 255.742188 214.226562 255.742188 C 214.039062 255.867188 213.789062 255.992188 213.601562 256.117188 C 213.476562 256.179688 213.289062 256.304688 213.164062 256.367188 C 213.039062 256.429688 212.976562 256.492188 212.851562 256.554688 C 212.664062 256.679688 212.414062 256.804688 212.226562 256.929688 C 212.164062 256.929688 212.164062 256.992188 212.101562 256.992188 C 204.859375 260.925781 197.179688 262.988281 189.058594 263.238281 C 188.996094 263.238281 188.933594 263.238281 188.808594 263.238281 L 186.4375 263.238281 C 186.375 263.238281 186.3125 263.238281 186.1875 263.238281 C 178.070312 263.050781 170.386719 260.925781 163.144531 256.992188 C 163.082031 256.992188 163.019531 256.929688 163.019531 256.929688 C 162.832031 256.804688 162.582031 256.679688 162.394531 256.554688 C 162.269531 256.492188 162.207031 256.429688 162.082031 256.367188 C 161.957031 256.304688 161.769531 256.179688 161.644531 256.117188 C 161.457031 255.992188 161.207031 255.867188 161.019531 255.742188 C 160.957031 255.742188 160.957031 255.679688 160.894531 255.679688 C 160.644531 255.554688 160.394531 255.367188 160.144531 255.179688 C 159.773438 254.929688 159.398438 254.742188 159.085938 254.429688 C 158.523438 253.992188 158.273438 253.433594 158.335938 252.808594 C 158.335938 252.746094 158.335938 252.621094 158.398438 252.558594 C 158.398438 252.496094 158.398438 252.433594 158.460938 252.371094 C 158.460938 252.308594 158.460938 252.246094 158.523438 252.183594 C 158.648438 251.808594 158.835938 251.433594 159.148438 251.246094 L 178.757812 251.246094 C 178.820312 251.246094 178.878906 251.246094 178.878906 251.246094 C 178.941406 251.246094 178.941406 251.246094 179.003906 251.246094 L 179.316406 251.246094 C 179.316406 250.558594 179.253906 249.933594 179.253906 249.246094 L 168.515625 249.246094 C 147.40625 249.246094 126.300781 249.246094 105.191406 249.246094 C 105.128906 249.246094 105.066406 249.246094 105.003906 249.246094 L 104.941406 249.246094 C 104.878906 249.246094 104.816406 249.246094 104.753906 249.246094 C 104.566406 249.246094 104.316406 249.246094 104.066406 249.308594 C 103.753906 249.371094 103.507812 249.621094 103.445312 249.871094 C 103.445312 249.933594 103.382812 249.933594 103.382812 249.996094 C 103.382812 250.058594 103.382812 250.121094 103.382812 250.183594 C 103.382812 250.496094 103.628906 250.996094 104.003906 251.121094 C 104.316406 251.246094 104.691406 251.246094 105.003906 251.246094 L 105.066406 251.246094 C 107.816406 251.246094 110.5 251.246094 113.246094 251.246094 L 127.546875 251.246094 C 129.296875 251.496094 130.671875 251.746094 131.671875 251.996094 C 131.792969 252.058594 131.980469 252.058594 132.105469 252.121094 C 132.292969 252.183594 132.480469 252.246094 132.667969 252.308594 C 132.730469 252.308594 132.730469 252.308594 132.792969 252.371094 C 132.917969 252.433594 133.105469 252.496094 133.230469 252.558594 C 133.292969 252.558594 133.292969 252.558594 133.355469 252.621094 C 133.730469 252.808594 134.105469 252.933594 134.480469 253.121094 C 134.542969 253.183594 134.667969 253.246094 134.730469 253.308594 C 134.855469 253.371094 134.917969 253.433594 135.042969 253.496094 C 135.105469 253.558594 135.230469 253.621094 135.292969 253.683594 C 135.417969 253.746094 135.480469 253.808594 135.605469 253.871094 C 135.667969 253.929688 135.792969 253.992188 135.855469 254.054688 C 135.980469 254.117188 136.042969 254.179688 136.167969 254.304688 C 136.230469 254.367188 136.355469 254.429688 136.417969 254.492188 C 136.539062 254.554688 136.601562 254.679688 136.726562 254.742188 C 136.789062 254.804688 136.851562 254.867188 136.914062 254.929688 C 137.039062 255.054688 137.164062 255.117188 137.226562 255.242188 C 137.289062 255.304688 137.351562 255.367188 137.414062 255.429688 C 137.601562 255.617188 137.726562 255.742188 137.914062 255.929688 C 138.101562 256.179688 138.289062 256.367188 138.539062 256.617188 C 138.601562 256.679688 138.664062 256.742188 138.726562 256.867188 C 138.851562 256.992188 138.976562 257.179688 139.101562 257.304688 C 139.164062 257.367188 139.289062 257.492188 139.351562 257.554688 C 139.476562 257.679688 139.601562 257.804688 139.726562 257.929688 C 139.789062 258.054688 139.914062 258.117188 139.976562 258.242188 C 140.101562 258.367188 140.226562 258.492188 140.351562 258.617188 C 140.414062 258.738281 140.539062 258.800781 140.601562 258.863281 C 140.726562 258.988281 140.851562 259.113281 140.976562 259.238281 C 141.101562 259.363281 141.164062 259.425781 141.285156 259.550781 C 141.410156 259.675781 141.535156 259.800781 141.660156 259.863281 C 141.785156 259.925781 141.847656 260.050781 141.972656 260.113281 C 142.097656 260.238281 142.222656 260.363281 142.347656 260.425781 C 142.472656 260.488281 142.535156 260.613281 142.660156 260.675781 C 142.785156 260.800781 142.910156 260.863281 143.035156 260.988281 C 143.160156 261.050781 143.222656 261.175781 143.347656 261.238281 C 143.472656 261.363281 143.597656 261.425781 143.722656 261.550781 C 143.847656 261.613281 143.910156 261.738281 144.035156 261.800781 C 144.160156 261.925781 144.285156 261.988281 144.410156 262.113281 C 144.535156 262.175781 144.597656 262.300781 144.722656 262.363281 C 144.847656 262.488281 144.972656 262.550781 145.097656 262.675781 C 145.222656 262.738281 145.285156 262.863281 145.410156 262.925781 C 145.535156 263.050781 145.660156 263.113281 145.785156 263.238281 C 145.910156 263.300781 145.96875 263.421875 146.09375 263.484375 C 146.21875 263.609375 146.34375 263.671875 146.46875 263.796875 C 146.59375 263.859375 146.65625 263.984375 146.78125 264.046875 C 146.90625 264.171875 147.03125 264.234375 147.15625 264.359375 C 147.28125 264.421875 147.34375 264.546875 147.46875 264.609375 C 147.59375 264.734375 147.71875 264.796875 147.84375 264.921875 C 147.96875 264.984375 148.03125 265.109375 148.15625 265.171875 C 148.28125 265.296875 148.40625 265.359375 148.53125 265.484375 C 148.65625 265.546875 148.71875 265.609375 148.84375 265.734375 C 148.96875 265.859375 149.09375 265.921875 149.21875 266.046875 C 149.34375 266.109375 149.40625 266.171875 149.53125 266.296875 C 149.65625 266.421875 149.78125 266.484375 149.90625 266.546875 C 150.03125 266.609375 150.09375 266.671875 150.21875 266.734375 C 150.34375 266.796875 150.46875 266.921875 150.59375 266.984375 C 150.714844 267.046875 150.777344 267.109375 150.902344 267.171875 C 151.027344 267.234375 151.152344 267.359375 151.277344 267.421875 C 151.402344 267.484375 151.464844 267.546875 151.589844 267.609375 C 151.714844 267.671875 151.839844 267.796875 152.027344 267.859375 C 152.152344 267.921875 152.214844 267.980469 152.339844 268.042969 C 152.464844 268.105469 152.589844 268.230469 152.777344 268.292969 C 152.902344 268.355469 152.964844 268.417969 153.089844 268.480469 C 153.214844 268.542969 153.402344 268.667969 153.527344 268.730469 C 153.652344 268.792969 153.714844 268.855469 153.839844 268.917969 C 153.964844 268.980469 154.152344 269.105469 154.277344 269.167969 C 154.402344 269.230469 154.464844 269.292969 154.589844 269.355469 C 154.714844 269.417969 154.902344 269.542969 155.027344 269.605469 C 155.152344 269.667969 155.214844 269.730469 155.339844 269.792969 C 155.460938 269.855469 155.648438 269.980469 155.773438 270.042969 C 155.898438 270.105469 155.960938 270.167969 156.085938 270.230469 C 156.210938 270.292969 156.398438 270.417969 156.523438 270.480469 C 156.648438 270.542969 156.710938 270.605469 156.835938 270.667969 C 156.960938 270.730469 157.148438 270.855469 157.273438 270.917969 C 157.398438 270.980469 157.460938 271.042969 157.585938 271.105469 C 157.710938 271.167969 157.898438 271.230469 158.023438 271.355469 C 158.148438 271.417969 158.210938 271.480469 158.335938 271.542969 C 158.460938 271.605469 158.648438 271.667969 158.773438 271.792969 C 158.898438 271.855469 158.960938 271.917969 159.085938 271.917969 C 159.210938 271.980469 159.398438 272.042969 159.523438 272.167969 C 159.648438 272.230469 159.710938 272.292969 159.835938 272.292969 C 159.960938 272.355469 160.144531 272.417969 160.269531 272.480469 C 160.394531 272.542969 160.457031 272.605469 160.582031 272.605469 C 160.769531 272.664062 160.894531 272.726562 161.082031 272.789062 C 161.207031 272.851562 161.269531 272.851562 161.394531 272.914062 C 161.582031 272.976562 161.707031 273.039062 161.894531 273.101562 C 162.019531 273.164062 162.082031 273.164062 162.207031 273.226562 C 162.394531 273.289062 162.519531 273.351562 162.707031 273.414062 C 162.832031 273.476562 162.894531 273.476562 163.019531 273.539062 C 163.207031 273.601562 163.332031 273.664062 163.519531 273.726562 C 163.644531 273.789062 163.707031 273.789062 163.832031 273.851562 C 164.019531 273.914062 164.144531 273.976562 164.332031 274.039062 C 164.457031 274.101562 164.519531 274.101562 164.644531 274.164062 C 164.828125 274.226562 164.953125 274.289062 165.140625 274.351562 C 165.265625 274.414062 165.328125 274.414062 165.453125 274.476562 C 165.640625 274.539062 165.765625 274.601562 165.953125 274.664062 C 166.078125 274.726562 166.140625 274.726562 166.265625 274.789062 C 166.453125 274.851562 166.578125 274.914062 166.765625 274.976562 C 166.890625 275.039062 166.953125 275.039062 167.078125 275.101562 C 167.265625 275.164062 167.390625 275.226562 167.578125 275.289062 C 167.703125 275.351562 167.765625 275.351562 167.890625 275.414062 C 168.078125 275.476562 168.203125 275.539062 168.390625 275.601562 C 168.515625 275.664062 168.578125 275.664062 168.703125 275.664062 C 168.890625 275.726562 169.078125 275.789062 169.203125 275.851562 C 169.328125 275.851562 169.390625 275.914062 169.511719 275.914062 C 169.699219 275.976562 169.886719 276.039062 170.011719 276.039062 C 170.136719 276.039062 170.199219 276.101562 170.324219 276.101562 C 170.511719 276.164062 170.699219 276.226562 170.824219 276.226562 C 170.949219 276.226562 171.011719 276.289062 171.136719 276.289062 C 171.324219 276.351562 171.511719 276.351562 171.636719 276.414062 C 171.761719 276.414062 171.824219 276.476562 171.949219 276.476562 C 172.136719 276.539062 172.324219 276.539062 172.511719 276.601562 C 172.636719 276.601562 172.699219 276.664062 172.824219 276.664062 C 173.011719 276.726562 173.199219 276.726562 173.386719 276.789062 C 173.511719 276.789062 173.574219 276.851562 173.699219 276.851562 C 173.886719 276.914062 174.074219 276.914062 174.257812 276.976562 C 174.382812 276.976562 174.445312 277.039062 174.570312 277.039062 C 174.757812 277.101562 174.945312 277.101562 175.132812 277.164062 C 175.257812 277.164062 175.320312 277.226562 175.445312 277.226562 C 175.632812 277.289062 175.820312 277.289062 176.007812 277.351562 C 176.132812 277.351562 176.195312 277.410156 176.320312 277.410156 C 176.507812 277.472656 176.695312 277.472656 176.882812 277.535156 C 177.007812 277.535156 177.070312 277.597656 177.195312 277.597656 C 177.382812 277.597656 177.570312 277.660156 177.757812 277.660156 C 177.882812 277.660156 177.945312 277.722656 178.070312 277.722656 C 178.257812 277.722656 178.445312 277.785156 178.632812 277.785156 C 178.757812 277.785156 178.820312 277.785156 178.941406 277.847656 C 179.128906 277.847656 179.316406 277.910156 179.503906 277.910156 C 179.628906 277.910156 179.691406 277.910156 179.816406 277.972656 C 180.003906 277.972656 180.191406 278.035156 180.378906 278.035156 C 180.503906 278.035156 180.566406 278.035156 180.691406 278.097656 C 180.878906 278.097656 181.066406 278.160156 181.253906 278.160156 C 181.378906 278.160156 181.441406 278.160156 181.566406 278.160156 C 181.753906 278.160156 181.941406 278.222656 182.128906 278.222656 C 182.253906 278.222656 182.316406 278.222656 182.441406 278.222656 C 182.628906 278.222656 182.816406 278.285156 183.003906 278.285156 C 183.128906 278.285156 183.191406 278.285156 183.316406 278.285156 C 183.503906 278.285156 183.6875 278.285156 183.875 278.347656 C 184 278.347656 184.0625 278.347656 184.1875 278.347656 C 184.375 278.347656 184.5625 278.347656 184.75 278.410156 C 184.875 278.410156 184.9375 278.410156 185.0625 278.410156 C 185.25 278.410156 185.4375 278.410156 185.625 278.410156 C 185.75 278.410156 185.8125 278.410156 185.9375 278.410156 C 186.125 278.410156 186.3125 278.410156 186.5 278.410156 C 186.625 278.410156 186.6875 278.410156 186.8125 278.410156 C 186.875 278.410156 187 278.410156 187.0625 278.410156 L 187.125 278.410156 C 187.25 278.410156 187.375 278.410156 187.5 278.410156 C 187.5 278.660156 187.5 278.910156 187.5 279.160156 L 187.5 278.410156 L 189.246094 278.410156 L 189.246094 279.160156 C 189.246094 278.910156 189.246094 278.660156 189.246094 278.410156 C 189.371094 278.410156 189.496094 278.410156 189.621094 278.410156 L 189.683594 278.410156 C 189.746094 278.410156 189.871094 278.410156 189.933594 278.410156 C 190.058594 278.410156 190.121094 278.410156 190.246094 278.410156 C 190.433594 278.410156 190.621094 278.410156 190.808594 278.410156 C 190.933594 278.410156 190.996094 278.410156 191.121094 278.410156 C 191.308594 278.410156 191.496094 278.410156 191.683594 278.410156 C 191.808594 278.410156 191.871094 278.410156 191.996094 278.410156 C 192.183594 278.410156 192.371094 278.410156 192.558594 278.347656 C 192.683594 278.347656 192.746094 278.347656 192.871094 278.347656 C 193.054688 278.347656 193.242188 278.347656 193.429688 278.285156 C 193.554688 278.285156 193.617188 278.285156 193.742188 278.285156 C 193.929688 278.285156 194.117188 278.222656 194.304688 278.222656 C 194.429688 278.222656 194.492188 278.222656 194.617188 278.222656 C 194.804688 278.222656 194.992188 278.160156 195.179688 278.160156 C 195.304688 278.160156 195.367188 278.160156 195.492188 278.160156 C 195.679688 278.160156 195.867188 278.097656 196.054688 278.097656 C 196.179688 278.097656 196.242188 278.097656 196.367188 278.035156 C 196.554688 278.035156 196.742188 277.972656 196.929688 277.972656 C 197.054688 277.972656 197.117188 277.972656 197.242188 277.910156 C 197.429688 277.910156 197.613281 277.847656 197.800781 277.847656 C 197.925781 277.847656 197.988281 277.847656 198.113281 277.785156 C 198.300781 277.785156 198.488281 277.722656 198.675781 277.722656 C 198.800781 277.722656 198.863281 277.722656 198.988281 277.660156 C 199.175781 277.660156 199.363281 277.597656 199.550781 277.597656 C 199.675781 277.597656 199.738281 277.535156 199.863281 277.535156 C 200.050781 277.472656 200.238281 277.472656 200.425781 277.410156 C 200.550781 277.410156 200.613281 277.351562 200.738281 277.351562 C 200.925781 277.289062 201.113281 277.289062 201.300781 277.226562 C 201.425781 277.226562 201.488281 277.164062 201.613281 277.164062 C 201.800781 277.101562 201.988281 277.101562 202.175781 277.039062 C 202.296875 277.039062 202.359375 276.976562 202.484375 276.976562 C 202.671875 276.914062 202.859375 276.914062 203.046875 276.851562 C 203.171875 276.851562 203.234375 276.789062 203.359375 276.789062 C 203.546875 276.726562 203.734375 276.726562 203.921875 276.664062 C 204.046875 276.664062 204.109375 276.601562 204.234375 276.601562 C 204.421875 276.539062 204.609375 276.539062 204.796875 276.476562 C 204.921875 276.476562 204.984375 276.414062 205.109375 276.414062 C 205.296875 276.351562 205.484375 276.351562 205.609375 276.289062 C 205.734375 276.289062 205.796875 276.226562 205.921875 276.226562 C 206.109375 276.164062 206.296875 276.101562 206.421875 276.101562 C 206.546875 276.101562 206.609375 276.039062 206.734375 276.039062 C 206.921875 275.976562 207.105469 275.914062 207.230469 275.914062 C 207.355469 275.914062 207.417969 275.851562 207.542969 275.851562 C 207.730469 275.789062 207.917969 275.726562 208.042969 275.664062 C 208.167969 275.664062 208.230469 275.601562 208.355469 275.601562 C 208.542969 275.539062 208.667969 275.476562 208.855469 275.414062 C 208.980469 275.351562 209.042969 275.351562 209.167969 275.289062 C 209.355469 275.226562 209.480469 275.164062 209.667969 275.101562 C 209.792969 275.039062 209.855469 275.039062 209.980469 274.976562 C 210.167969 274.914062 210.292969 274.851562 210.480469 274.789062 C 210.605469 274.726562 210.667969 274.726562 210.792969 274.664062 C 210.980469 274.601562 211.105469 274.539062 211.292969 274.476562 C 211.417969 274.414062 211.480469 274.414062 211.605469 274.351562 C 211.789062 274.289062 211.914062 274.226562 212.101562 274.164062 C 212.226562 274.101562 212.289062 274.101562 212.414062 274.039062 C 212.601562 273.976562 212.726562 273.914062 212.914062 273.851562 C 213.039062 273.789062 213.101562 273.789062 213.226562 273.726562 C 213.414062 273.664062 213.539062 273.601562 213.726562 273.539062 C 213.851562 273.476562 213.914062 273.476562 214.039062 273.414062 C 214.226562 273.351562 214.351562 273.289062 214.539062 273.226562 C 214.664062 273.164062 214.726562 273.164062 214.851562 273.101562 C 215.039062 273.039062 215.164062 272.976562 215.351562 272.914062 C 215.476562 272.851562 215.539062 272.851562 215.664062 272.789062 C 215.851562 272.726562 215.976562 272.664062 216.164062 272.605469 C 216.289062 272.542969 216.351562 272.480469 216.472656 272.480469 C 216.597656 272.417969 216.785156 272.355469 216.910156 272.292969 C 217.035156 272.230469 217.097656 272.167969 217.222656 272.167969 C 217.347656 272.105469 217.535156 272.042969 217.660156 271.917969 C 217.785156 271.855469 217.847656 271.792969 217.972656 271.792969 C 218.097656 271.730469 218.285156 271.667969 218.410156 271.542969 C 218.535156 271.480469 218.597656 271.417969 218.722656 271.355469 C 218.847656 271.292969 219.035156 271.230469 219.160156 271.105469 C 219.285156 271.042969 219.347656 270.980469 219.472656 270.917969 C 219.597656 270.855469 219.785156 270.730469 219.910156 270.667969 C 220.035156 270.605469 220.097656 270.542969 220.222656 270.480469 C 220.347656 270.417969 220.535156 270.292969 220.660156 270.230469 C 220.785156 270.167969 220.847656 270.105469 220.972656 270.042969 C 221.097656 269.980469 221.28125 269.855469 221.40625 269.792969 C 221.53125 269.730469 221.59375 269.667969 221.71875 269.605469 C 221.84375 269.542969 222.03125 269.417969 222.15625 269.355469 C 222.28125 269.292969 222.34375 269.230469 222.46875 269.167969 C 222.59375 269.105469 222.78125 268.980469 222.90625 268.917969 C 223.03125 268.855469 223.09375 268.792969 223.21875 268.730469 C 223.34375 268.667969 223.53125 268.542969 223.65625 268.480469 C 223.78125 268.417969 223.84375 268.355469 223.96875 268.292969 C 224.09375 268.230469 224.21875 268.105469 224.40625 268.042969 C 224.53125 267.980469 224.59375 267.921875 224.71875 267.859375 C 224.84375 267.796875 224.96875 267.671875 225.15625 267.609375 C 225.28125 267.546875 225.34375 267.484375 225.46875 267.421875 C 225.59375 267.359375 225.71875 267.234375 225.84375 267.171875 C 225.964844 267.109375 226.027344 267.046875 226.152344 266.984375 C 226.277344 266.921875 226.402344 266.796875 226.527344 266.734375 C 226.652344 266.671875 226.714844 266.609375 226.839844 266.546875 C 226.964844 266.484375 227.089844 266.359375 227.214844 266.296875 C 227.339844 266.234375 227.402344 266.171875 227.527344 266.046875 C 227.652344 265.921875 227.777344 265.859375 227.902344 265.734375 C 228.027344 265.671875 228.089844 265.609375 228.214844 265.484375 C 228.339844 265.359375 228.464844 265.296875 228.589844 265.171875 C 228.714844 265.109375 228.777344 264.984375 228.902344 264.921875 C 229.027344 264.796875 229.152344 264.734375 229.277344 264.609375 C 229.402344 264.546875 229.464844 264.421875 229.589844 264.359375 C 229.714844 264.234375 229.839844 264.171875 229.964844 264.046875 C 230.089844 263.984375 230.152344 263.859375 230.277344 263.796875 C 230.402344 263.671875 230.527344 263.609375 230.648438 263.484375 C 230.773438 263.421875 230.835938 263.296875 230.960938 263.238281 C 231.085938 263.113281 231.210938 263.050781 231.335938 262.925781 C 231.460938 262.863281 231.523438 262.738281 231.648438 262.675781 C 231.773438 262.550781 231.898438 262.488281 232.023438 262.363281 C 232.148438 262.300781 232.210938 262.175781 232.335938 262.113281 C 232.460938 261.988281 232.585938 261.925781 232.710938 261.800781 C 232.835938 261.738281 232.898438 261.613281 233.023438 261.550781 C 233.148438 261.425781 233.273438 261.363281 233.398438 261.238281 C 233.523438 261.175781 233.585938 261.050781 233.710938 260.988281 C 233.835938 260.863281 233.960938 260.800781 234.085938 260.675781 C 234.210938 260.613281 234.273438 260.488281 234.398438 260.425781 C 234.523438 260.300781 234.648438 260.175781 234.773438 260.113281 C 234.898438 260.050781 234.960938 259.925781 235.085938 259.863281 C 235.210938 259.738281 235.332031 259.613281 235.457031 259.550781 C 235.582031 259.425781 235.644531 259.363281 235.769531 259.238281 C 235.894531 259.113281 236.019531 258.988281 236.144531 258.863281 C 236.207031 258.800781 236.332031 258.675781 236.394531 258.617188 C 236.519531 258.492188 236.644531 258.367188 236.769531 258.242188 C 236.832031 258.117188 236.957031 258.054688 237.019531 257.929688 C 237.144531 257.804688 237.269531 257.679688 237.394531 257.554688 C 237.457031 257.492188 237.582031 257.367188 237.644531 257.304688 C 237.769531 257.179688 237.894531 256.992188 238.019531 256.867188 C 238.082031 256.804688 238.144531 256.742188 238.207031 256.617188 C 238.394531 256.367188 238.582031 256.179688 238.832031 255.929688 C 239.019531 255.742188 239.144531 255.554688 239.332031 255.429688 C 239.394531 255.367188 239.457031 255.304688 239.519531 255.242188 C 239.644531 255.117188 239.769531 255.054688 239.832031 254.929688 C 239.894531 254.867188 239.957031 254.804688 240.015625 254.742188 C 240.140625 254.679688 240.203125 254.554688 240.328125 254.492188 C 240.390625 254.429688 240.515625 254.367188 240.578125 254.304688 C 240.703125 254.242188 240.765625 254.179688 240.890625 254.054688 C 240.953125 253.992188 241.078125 253.929688 241.140625 253.871094 C 241.265625 253.808594 241.328125 253.746094 241.453125 253.683594 C 241.515625 253.621094 241.640625 253.558594 241.703125 253.496094 C 241.828125 253.433594 241.890625 253.371094 242.015625 253.308594 C 242.078125 253.246094 242.203125 253.183594 242.265625 253.121094 C 243.015625 252.683594 243.828125 252.371094 244.640625 252.183594 C 244.761719 252.121094 244.949219 252.121094 245.074219 252.058594 C 246.074219 251.808594 247.449219 251.496094 249.199219 251.308594 L 263.5 251.308594 C 266.246094 251.308594 268.929688 251.308594 271.679688 251.308594 L 271.742188 251.308594 C 272.054688 251.308594 272.429688 251.308594 272.742188 251.183594 C 273.113281 251.058594 273.363281 250.558594 273.363281 250.246094 C 273.363281 250.183594 273.363281 250.121094 273.363281 250.058594 C 271.929688 249.871094 271.929688 249.808594 271.867188 249.808594 Z M 141.101562 251.121094 C 141.160156 251.183594 141.222656 251.246094 141.285156 251.308594 C 141.472656 251.496094 141.597656 251.683594 141.785156 251.871094 C 142.097656 252.246094 142.410156 252.621094 142.785156 252.996094 C 143.472656 253.746094 144.160156 254.429688 144.847656 255.054688 C 145.535156 255.742188 146.28125 256.367188 147.09375 256.929688 C 147.84375 257.554688 148.65625 258.054688 149.53125 258.554688 C 148.78125 257.929688 148.03125 257.304688 147.34375 256.679688 C 147.15625 256.492188 147.03125 256.367188 146.84375 256.179688 C 146.34375 255.679688 145.847656 255.117188 145.410156 254.554688 C 144.785156 253.808594 144.222656 253.058594 143.660156 252.308594 C 143.347656 251.933594 143.097656 251.496094 142.847656 251.058594 C 143.160156 251.058594 143.535156 251.058594 143.847656 251.058594 L 145.410156 251.058594 C 145.660156 251.308594 145.847656 251.621094 146.09375 251.871094 C 146.40625 252.246094 146.78125 252.621094 147.09375 252.996094 C 147.78125 253.683594 148.53125 254.367188 149.28125 255.054688 C 150.03125 255.742188 150.777344 256.367188 151.589844 256.929688 C 151.777344 257.054688 151.964844 257.242188 152.214844 257.367188 C 152.402344 257.492188 152.589844 257.617188 152.777344 257.742188 C 153.214844 258.054688 153.652344 258.304688 154.089844 258.554688 C 153.402344 257.992188 152.714844 257.429688 152.027344 256.867188 C 151.777344 256.617188 151.527344 256.429688 151.277344 256.179688 C 151.089844 255.992188 150.902344 255.804688 150.777344 255.679688 C 150.46875 255.304688 150.09375 254.992188 149.78125 254.617188 C 149.15625 253.871094 148.53125 253.121094 147.90625 252.371094 C 147.59375 251.996094 147.28125 251.558594 147.03125 251.183594 L 147.34375 251.183594 C 147.59375 251.183594 147.78125 251.183594 148.03125 251.183594 L 149.65625 251.183594 C 149.90625 251.433594 150.15625 251.683594 150.46875 251.933594 C 150.839844 252.246094 151.214844 252.621094 151.589844 252.933594 C 152.339844 253.558594 153.152344 254.242188 153.902344 254.804688 C 155.460938 256.054688 157.148438 257.179688 158.835938 258.179688 C 157.210938 256.992188 155.773438 255.679688 154.339844 254.304688 C 153.652344 253.621094 152.964844 252.933594 152.277344 252.183594 C 151.964844 251.871094 151.714844 251.496094 151.402344 251.183594 L 153.152344 251.183594 C 153.214844 251.246094 153.277344 251.246094 153.277344 251.308594 C 161.582031 258.554688 171.636719 262.738281 181.941406 263.859375 C 183.003906 263.984375 184.0625 264.046875 185.125 264.109375 C 185.5 264.109375 185.875 264.171875 186.25 264.171875 C 186.625 264.171875 187 264.171875 187.375 264.171875 C 187.375 264.171875 187.4375 264.171875 187.4375 264.171875 C 187.4375 264.171875 187.5 264.171875 187.5 264.171875 C 187.5 264.171875 187.5625 264.171875 187.5625 264.171875 C 187.5625 264.171875 187.625 264.171875 187.625 264.171875 C 188.371094 264.171875 189.121094 264.171875 189.933594 264.109375 C 190.996094 264.046875 192.058594 263.984375 193.117188 263.859375 C 203.421875 262.738281 213.414062 258.554688 221.78125 251.308594 C 221.84375 251.246094 221.90625 251.246094 221.90625 251.183594 L 223.65625 251.183594 C 223.34375 251.496094 223.09375 251.871094 222.78125 252.183594 C 222.09375 252.933594 221.40625 253.621094 220.722656 254.304688 C 219.347656 255.679688 217.847656 256.992188 216.226562 258.179688 C 217.972656 257.179688 219.597656 256.054688 221.15625 254.804688 C 221.96875 254.179688 222.71875 253.558594 223.46875 252.933594 C 223.84375 252.621094 224.21875 252.246094 224.59375 251.933594 C 224.84375 251.683594 225.15625 251.433594 225.40625 251.183594 L 227.027344 251.183594 C 227.214844 251.183594 227.339844 251.183594 227.527344 251.183594 L 228.027344 251.183594 C 227.714844 251.621094 227.464844 251.996094 227.152344 252.371094 C 226.589844 253.121094 225.964844 253.871094 225.28125 254.617188 C 224.96875 254.992188 224.59375 255.367188 224.28125 255.679688 C 224.09375 255.867188 223.96875 256.054688 223.78125 256.179688 C 223.53125 256.429688 223.28125 256.679688 223.03125 256.867188 C 222.40625 257.492188 221.71875 258.054688 220.972656 258.554688 C 221.34375 258.304688 221.78125 258.054688 222.15625 257.804688 C 222.40625 257.679688 222.59375 257.492188 222.84375 257.367188 C 223.03125 257.242188 223.21875 257.054688 223.46875 256.929688 C 224.28125 256.304688 225.03125 255.679688 225.78125 255.054688 C 226.527344 254.367188 227.214844 253.683594 227.964844 252.996094 C 228.527344 252.371094 229.152344 251.746094 229.714844 251.121094 L 230.710938 251.121094 C 231.273438 251.121094 231.773438 251.121094 232.335938 251.121094 C 232.085938 251.558594 231.773438 251.933594 231.523438 252.371094 C 230.960938 253.121094 230.402344 253.871094 229.777344 254.617188 C 229.339844 255.179688 228.839844 255.679688 228.339844 256.242188 C 228.152344 256.429688 228.027344 256.554688 227.839844 256.742188 C 227.152344 257.429688 226.402344 258.054688 225.65625 258.617188 C 226.464844 258.117188 227.277344 257.554688 228.089844 256.992188 C 228.839844 256.429688 229.589844 255.742188 230.339844 255.117188 C 231.023438 254.429688 231.773438 253.746094 232.398438 253.058594 C 232.960938 252.433594 233.523438 251.808594 234.023438 251.183594 L 236.269531 251.183594 C 223.46875 266.171875 207.605469 274.164062 188.621094 274.351562 C 188.308594 274.351562 188 274.351562 187.6875 274.351562 C 187.6875 274.351562 187.625 274.351562 187.625 274.351562 C 187.625 274.351562 187.5625 274.351562 187.5625 274.351562 C 187.5625 274.351562 187.5 274.351562 187.5 274.351562 C 187.5 274.351562 187.4375 274.351562 187.4375 274.351562 C 187.125 274.351562 186.8125 274.351562 186.5 274.351562 C 167.515625 274.164062 151.714844 266.171875 138.851562 251.183594 Z M 201.675781 275.039062 C 200.863281 275.226562 200.050781 275.414062 199.175781 275.539062 C 198.175781 275.726562 197.117188 275.914062 196.117188 276.039062 C 195.429688 276.101562 194.742188 276.226562 194.054688 276.289062 C 191.933594 276.476562 189.808594 276.601562 187.625 276.601562 C 187.625 276.601562 187.5625 276.601562 187.5625 276.601562 C 187.5625 276.601562 187.5 276.601562 187.5 276.601562 C 187.5 276.601562 187.4375 276.601562 187.4375 276.601562 C 187.4375 276.601562 187.375 276.601562 187.375 276.601562 C 185.1875 276.601562 183.066406 276.476562 180.941406 276.289062 C 180.253906 276.226562 179.566406 276.164062 178.878906 276.039062 C 177.820312 275.914062 176.820312 275.726562 175.820312 275.539062 C 175.007812 275.414062 174.132812 275.226562 173.324219 275.039062 C 156.835938 271.292969 143.722656 261.425781 136.167969 251.121094 L 136.417969 251.121094 C 136.417969 251.121094 136.476562 251.121094 136.476562 251.121094 L 137.539062 251.121094 C 137.664062 251.246094 137.789062 251.371094 137.914062 251.496094 C 147.90625 263.796875 160.644531 271.792969 176.320312 274.351562 C 180.066406 274.976562 183.75 275.289062 187.3125 275.351562 C 187.3125 275.351562 187.375 275.351562 187.375 275.351562 C 187.375 275.351562 187.4375 275.351562 187.4375 275.351562 C 187.4375 275.351562 187.5 275.351562 187.5 275.351562 C 187.5 275.351562 187.5625 275.351562 187.5625 275.351562 C 191.121094 275.289062 194.804688 274.976562 198.550781 274.351562 C 214.226562 271.792969 226.964844 263.796875 236.957031 251.496094 C 237.082031 251.371094 237.207031 251.246094 237.332031 251.121094 L 238.332031 251.121094 C 238.332031 251.121094 238.332031 251.121094 238.394531 251.121094 C 238.394531 251.121094 238.457031 251.121094 238.457031 251.121094 L 238.707031 251.121094 C 231.210938 261.488281 218.097656 271.355469 201.675781 275.039062 Z M 201.675781 275.039062 " fill-opacity="1" fill-rule="nonzero"/></g><path fill="#ffffff" d="M 186.375 261.613281 C 186.75 261.863281 187.125 261.988281 187.5 261.988281 C 187.875 261.988281 188.246094 261.863281 188.621094 261.613281 C 190.871094 260.238281 192.183594 258.179688 193.242188 255.867188 C 194.117188 254.054688 194.617188 252.183594 194.367188 250.183594 C 194.054688 247.8125 192.621094 246.5625 190.433594 245.875 C 189.433594 245.5625 188.433594 245.4375 187.4375 245.4375 C 186.4375 245.4375 185.4375 245.625 184.4375 245.875 C 182.253906 246.5625 180.816406 247.8125 180.503906 250.183594 C 180.253906 252.246094 180.753906 254.117188 181.628906 255.867188 C 182.816406 258.117188 184.125 260.238281 186.375 261.613281 Z M 186.375 261.613281 " fill-opacity="1" fill-rule="nonzero"/><g fill="#ffffff" fill-opacity="1"><g transform="translate(63.104073, 217.583232)"><g><path d="M 23 0 L 13.78125 0 L 13.78125 -12.265625 L 10.734375 -12.265625 L 10.734375 0 L 1.515625 0 L 1.515625 -33.75 L 10.734375 -33.75 L 10.734375 -21.484375 L 13.78125 -21.484375 L 13.78125 -33.75 L 23 -33.75 Z M 23 0 "/></g></g></g><g fill="#ffffff" fill-opacity="1"><g transform="translate(87.619731, 217.583232)"><g><path d="M 23 0 L 1.515625 0 L 1.515625 -33.75 L 23 -33.75 L 23 -24.53125 L 10.734375 -24.53125 L 10.734375 -21.484375 L 19.90625 -21.484375 L 19.90625 -12.265625 L 10.734375 -12.265625 L 10.734375 -9.21875 L 23 -9.21875 Z M 23 0 "/></g></g></g><g fill="#ffffff" fill-opacity="1"><g transform="translate(112.135389, 217.583232)"><g><path d="M 13.78125 -15.296875 L 13.78125 -24.53125 L 10.734375 -24.53125 L 10.734375 -15.296875 Z M 23 0 L 13.78125 0 L 13.78125 -6.125 L 10.734375 -6.125 L 10.734375 0 L 1.515625 0 L 1.515625 -29.140625 C 1.515625 -30.378906 1.972656 -31.457031 2.890625 -32.375 C 3.804688 -33.289062 4.882812 -33.75 6.125 -33.75 L 18.390625 -33.75 C 19.628906 -33.75 20.707031 -33.289062 21.625 -32.375 C 22.539062 -31.457031 23 -30.378906 23 -29.140625 Z M 23 0 "/></g></g></g><g fill="#ffffff" fill-opacity="1"><g transform="translate(136.651047, 217.583232)"><g><path d="M 23 -16.875 L 16.875 0 L 7.65625 0 L 1.515625 -16.875 L 1.515625 -33.75 L 10.734375 -33.75 L 10.734375 -16.875 L 12.265625 -12.75 L 13.78125 -16.875 L 13.78125 -33.75 L 23 -33.75 Z M 23 -16.875 "/></g></g></g><g fill="#ffffff" fill-opacity="1"><g transform="translate(161.166704, 217.583232)"><g><path d="M 23 0 L 1.515625 0 L 1.515625 -33.75 L 23 -33.75 L 23 -24.53125 L 10.734375 -24.53125 L 10.734375 -21.484375 L 19.90625 -21.484375 L 19.90625 -12.265625 L 10.734375 -12.265625 L 10.734375 -9.21875 L 23 -9.21875 Z M 23 0 "/></g></g></g><g fill="#ffffff" fill-opacity="1"><g transform="translate(185.682362, 217.583232)"><g><path d="M 26.046875 0 L 16.875 0 L 10.734375 -12.703125 L 10.734375 0 L 1.515625 0 L 1.515625 -33.75 L 10.734375 -33.75 L 16.875 -21.046875 L 16.875 -33.75 L 26.046875 -33.75 Z M 26.046875 0 "/></g></g></g><g fill="#ffffff" fill-opacity="1"><g transform="translate(213.23796, 217.583232)"><g/></g></g><g fill="#ffffff" fill-opacity="1"><g transform="translate(226.08417, 217.583232)"><g><path d="M 13.78125 -18.390625 L 13.78125 -24.53125 L 10.734375 -24.53125 L 10.734375 -18.390625 Z M 23 0 L 13.78125 0 L 13.78125 -9.21875 L 10.734375 -9.21875 L 10.734375 0 L 1.515625 0 L 1.515625 -33.75 L 18.390625 -33.75 C 19.628906 -33.75 20.707031 -33.289062 21.625 -32.375 C 22.539062 -31.457031 23 -30.378906 23 -29.140625 L 23 -18.390625 C 23 -17.148438 22.539062 -16.070312 21.625 -15.15625 C 20.707031 -14.238281 19.628906 -13.78125 18.390625 -13.78125 C 19.628906 -13.78125 20.707031 -13.328125 21.625 -12.421875 C 22.539062 -11.523438 23 -10.457031 23 -9.21875 Z M 23 0 "/></g></g></g><g fill="#ffffff" fill-opacity="1"><g transform="translate(250.599828, 217.583232)"><g><path d="M 10.734375 0 L 1.515625 0 L 1.515625 -33.75 L 10.734375 -33.75 Z M 10.734375 0 "/></g></g></g><g fill="#ffffff" fill-opacity="1"><g transform="translate(262.857662, 217.583232)"><g><path d="M 23 -24.53125 L 10.734375 -24.53125 L 10.734375 -21.484375 L 19.90625 -21.484375 L 19.90625 -12.265625 L 10.734375 -12.265625 L 10.734375 0 L 1.515625 0 L 1.515625 -33.75 L 23 -33.75 Z M 23 -24.53125 "/></g></g></g><g fill="#ffffff" fill-opacity="1"><g transform="translate(287.373331, 217.583232)"><g><path d="M 23 -24.53125 L 16.875 -24.53125 L 16.875 0 L 7.65625 0 L 7.65625 -24.53125 L 1.515625 -24.53125 L 1.515625 -33.75 L 23 -33.75 Z M 23 -24.53125 "/></g></g></g><g fill="#ffffff" fill-opacity="1"><g transform="translate(97.852508, 235.188144)"><g><path d="M 6.8125 0 L 4.078125 0 L 4.078125 -3.625 L 3.1875 -3.625 L 3.1875 0 L 0.453125 0 L 0.453125 -10 L 3.1875 -10 L 3.1875 -6.359375 L 4.078125 -6.359375 L 4.078125 -10 L 6.8125 -10 Z M 6.8125 0 "/></g></g></g><g fill="#ffffff" fill-opacity="1"><g transform="translate(109.661422, 235.188144)"><g><path d="M 6.8125 0 L 0.453125 0 L 0.453125 -10 L 6.8125 -10 L 6.8125 -7.265625 L 3.1875 -7.265625 L 3.1875 -6.359375 L 5.90625 -6.359375 L 5.90625 -3.625 L 3.1875 -3.625 L 3.1875 -2.734375 L 6.8125 -2.734375 Z M 6.8125 0 "/></g></g></g><g fill="#ffffff" fill-opacity="1"><g transform="translate(121.470337, 235.188144)"><g><path d="M 4.078125 -4.53125 L 4.078125 -7.265625 L 3.1875 -7.265625 L 3.1875 -4.53125 Z M 6.8125 0 L 4.078125 0 L 4.078125 -1.8125 L 3.1875 -1.8125 L 3.1875 0 L 0.453125 0 L 0.453125 -8.625 C 0.453125 -9 0.585938 -9.320312 0.859375 -9.59375 C 1.128906 -9.863281 1.445312 -10 1.8125 -10 L 5.453125 -10 C 5.816406 -10 6.132812 -9.863281 6.40625 -9.59375 C 6.675781 -9.320312 6.8125 -9 6.8125 -8.625 Z M 6.8125 0 "/></g></g></g><g fill="#ffffff" fill-opacity="1"><g transform="translate(133.279252, 235.188144)"><g><path d="M 6.8125 -5 L 5 0 L 2.265625 0 L 0.453125 -5 L 0.453125 -10 L 3.1875 -10 L 3.1875 -5 L 3.625 -3.78125 L 4.078125 -5 L 4.078125 -10 L 6.8125 -10 Z M 6.8125 -5 "/></g></g></g><g fill="#ffffff" fill-opacity="1"><g transform="translate(145.088165, 235.188144)"><g><path d="M 6.8125 0 L 0.453125 0 L 0.453125 -10 L 6.8125 -10 L 6.8125 -7.265625 L 3.1875 -7.265625 L 3.1875 -6.359375 L 5.90625 -6.359375 L 5.90625 -3.625 L 3.1875 -3.625 L 3.1875 -2.734375 L 6.8125 -2.734375 Z M 6.8125 0 "/></g></g></g><g fill="#ffffff" fill-opacity="1"><g transform="translate(156.897077, 235.188144)"><g><path d="M 7.71875 0 L 5 0 L 3.1875 -3.765625 L 3.1875 0 L 0.453125 0 L 0.453125 -10 L 3.1875 -10 L 5 -6.234375 L 5 -10 L 7.71875 -10 Z M 7.71875 0 "/></g></g></g><g fill="#ffffff" fill-opacity="1"><g transform="translate(169.606382, 235.188144)"><g/></g></g><g fill="#ffffff" fill-opacity="1"><g transform="translate(177.958957, 235.188144)"><g><path d="M 4.078125 -4.53125 L 4.078125 -7.265625 L 3.1875 -7.265625 L 3.1875 -4.53125 Z M 6.8125 0 L 4.078125 0 L 4.078125 -1.8125 L 3.1875 -1.8125 L 3.1875 0 L 0.453125 0 L 0.453125 -8.625 C 0.453125 -9 0.585938 -9.320312 0.859375 -9.59375 C 1.128906 -9.863281 1.445312 -10 1.8125 -10 L 5.453125 -10 C 5.816406 -10 6.132812 -9.863281 6.40625 -9.59375 C 6.675781 -9.320312 6.8125 -9 6.8125 -8.625 Z M 6.8125 0 "/></g></g></g><g fill="#ffffff" fill-opacity="1"><g transform="translate(189.767869, 235.188144)"><g><path d="M 7.71875 0 L 5 0 L 3.1875 -3.765625 L 3.1875 0 L 0.453125 0 L 0.453125 -10 L 3.1875 -10 L 5 -6.234375 L 5 -10 L 7.71875 -10 Z M 7.71875 0 "/></g></g></g><g fill="#ffffff" fill-opacity="1"><g transform="translate(202.477173, 235.188144)"><g><path d="M 4.078125 -2.734375 L 4.078125 -7.265625 L 3.1875 -7.265625 L 3.1875 -2.734375 Z M 6.8125 -1.359375 C 6.8125 -0.992188 6.675781 -0.675781 6.40625 -0.40625 C 6.132812 -0.132812 5.816406 0 5.453125 0 L 0.453125 0 L 0.453125 -10 L 5.453125 -10 C 5.816406 -10 6.132812 -9.863281 6.40625 -9.59375 C 6.675781 -9.320312 6.8125 -9 6.8125 -8.625 Z M 6.8125 -1.359375 "/></g></g></g><g fill="#ffffff" fill-opacity="1"><g transform="translate(214.286092, 235.188144)"><g/></g></g><g fill="#ffffff" fill-opacity="1"><g transform="translate(222.638667, 235.188144)"><g><path d="M 6.8125 0 L 0.453125 0 L 0.453125 -10 L 6.8125 -10 L 6.8125 -7.265625 L 3.1875 -7.265625 L 3.1875 -6.359375 L 5.90625 -6.359375 L 5.90625 -3.625 L 3.1875 -3.625 L 3.1875 -2.734375 L 6.8125 -2.734375 Z M 6.8125 0 "/></g></g></g><g fill="#ffffff" fill-opacity="1"><g transform="translate(234.44758, 235.188144)"><g><path d="M 4.078125 -4.53125 L 4.078125 -7.265625 L 3.1875 -7.265625 L 3.1875 -4.53125 Z M 6.8125 0 L 4.078125 0 L 4.078125 -1.8125 L 3.1875 -1.8125 L 3.1875 0 L 0.453125 0 L 0.453125 -8.625 C 0.453125 -9 0.585938 -9.320312 0.859375 -9.59375 C 1.128906 -9.863281 1.445312 -10 1.8125 -10 L 5.453125 -10 C 5.816406 -10 6.132812 -9.863281 6.40625 -9.59375 C 6.675781 -9.320312 6.8125 -9 6.8125 -8.625 Z M 6.8125 0 "/></g></g></g><g fill="#ffffff" fill-opacity="1"><g transform="translate(246.256493, 235.188144)"><g><path d="M 4.078125 -5.453125 L 4.078125 -7.265625 L 3.1875 -7.265625 L 3.1875 -5.453125 Z M 6.8125 0 L 4.078125 0 L 4.078125 -2.734375 L 3.1875 -2.734375 L 3.1875 0 L 0.453125 0 L 0.453125 -10 L 5.453125 -10 C 5.816406 -10 6.132812 -9.863281 6.40625 -9.59375 C 6.675781 -9.320312 6.8125 -9 6.8125 -8.625 L 6.8125 -5.453125 C 6.8125 -5.078125 6.675781 -4.753906 6.40625 -4.484375 C 6.132812 -4.210938 5.816406 -4.078125 5.453125 -4.078125 C 5.816406 -4.078125 6.132812 -3.941406 6.40625 -3.671875 C 6.675781 -3.410156 6.8125 -3.097656 6.8125 -2.734375 Z M 6.8125 0 "/></g></g></g><g fill="#ffffff" fill-opacity="1"><g transform="translate(258.065405, 235.188144)"><g><path d="M 6.8125 -7.265625 L 5 -7.265625 L 5 0 L 2.265625 0 L 2.265625 -7.265625 L 0.453125 -7.265625 L 0.453125 -10 L 6.8125 -10 Z M 6.8125 -7.265625 "/></g></g></g><g fill="#ffffff" fill-opacity="1"><g transform="translate(269.874318, 235.188144)"><g><path d="M 6.8125 0 L 4.078125 0 L 4.078125 -3.625 L 3.1875 -3.625 L 3.1875 0 L 0.453125 0 L 0.453125 -10 L 3.1875 -10 L 3.1875 -6.359375 L 4.078125 -6.359375 L 4.078125 -10 L 6.8125 -10 Z M 6.8125 0 "/></g></g></g></svg>